<?xml version="1.0" standalone="no"?>
<!DOCTYPE svg PUBLIC "-//W3C//DTD SVG 1.1//EN" "http://www.w3.org/Graphics/SVG/1.1/DTD/svg11.dtd" >
<svg xmlns="http://www.w3.org/2000/svg">
<metadata></metadata>
<defs>
<font id="little_lord_fontleroy_nfRg" horiz-adv-x="520" >
<font-face units-per-em="2048" ascent="1589" descent="-459" />
<missing-glyph horiz-adv-x="409" />
<glyph horiz-adv-x="0" />
<glyph horiz-adv-x="682" />
<glyph unicode=" "  horiz-adv-x="409" />
<glyph unicode="&#x09;" horiz-adv-x="409" />
<glyph unicode="&#xa0;" horiz-adv-x="409" />
<glyph unicode="!" horiz-adv-x="354" d="M55 74q0 39 27 65.5t65 26.5q39 0 65 -27.5t26 -64.5t-27 -63.5t-64 -26.5t-64.5 25.5t-27.5 64.5zM55 328v719q0 59 41 101t101 42q29 0 55.5 -10.5t46.5 -30.5l-43 -43q-10 10 -23.5 17t-35.5 7v-843q0 -10 8 -11q6 0 10 5.5t8 9.5l29 -55q-33 -27 -76 -27 q-49 0 -85 33.5t-36 85.5zM115 74q0 -14 10 -22.5t22 -8.5t21.5 9.5t9.5 21.5t-8 22t-23 10q-33 0 -32 -32zM115 328q0 -29 22 -47v823q-23 -23 -22 -57v-719z" />
<glyph unicode="&#x22;" horiz-adv-x="497" d="M55 936l66 96q-29 6 -46.5 33t-17.5 55q0 37 27 63.5t63 26.5q37 0 64 -26.5t27 -63.5q0 -31 -19 -55l-117 -164zM115 1120q0 -33 32 -33q12 0 22.5 9.5t10.5 21.5q0 14 -10 23.5t-23 9.5q-14 0 -23 -9t-9 -22zM260 936l66 96q-29 6 -46.5 33t-17.5 55q0 37 26.5 63.5 t63.5 26.5t63.5 -26.5t26.5 -63.5q0 -31 -18 -55l-117 -164zM319 1120q0 -33 33 -33q12 0 22.5 9.5t10.5 21.5q0 14 -10 23.5t-23 9.5q-14 0 -23.5 -9t-9.5 -22z" />
<glyph unicode="#" horiz-adv-x="733" d="M55 889v92h140l28 117h-168v92h193l57 225h92l-57 -225h117l55 225h102l-57 -225h121v-92h-143l-31 -117h174v-92h-197l-75 -309h-99l76 309h-119l-76 -309h-98l80 309h-115zM287 981h119l28 117h-117z" />
<glyph unicode="$" horiz-adv-x="468" d="M55 524q0 27 15.5 48.5t44.5 21.5q39 0 67.5 -31t28.5 -69q0 -18 -8 -33q10 -2 18 -3t17 -1q16 0 37.5 7t21.5 25t-36 44t-79 59t-78.5 68.5t-35.5 72.5q0 53 42 82t87 39v225h59v-223q23 -2 47.5 -9t44 -20.5t32.5 -34t13 -47.5q0 -25 -14 -45t-43 -20q-37 0 -63.5 29.5 t-26.5 64.5q0 10 4 23q-4 0 -7 1t-7 1q-14 0 -35 -6.5t-21 -24.5q0 -16 37 -41t80 -56.5t80 -68.5t37 -76q0 -31 -15.5 -53t-38 -38.5t-50 -26t-54.5 -11.5v-209h-59v213q-23 4 -48.5 13.5t-46 25t-34 37t-13.5 47.5zM127 743q0 -23 31.5 -51t71.5 -59t76 -61.5t46 -57.5 q2 4 2 10q0 23 -35.5 53.5t-77.5 61.5t-78 58.5t-36 45.5z" />
<glyph unicode="%" horiz-adv-x="1271" d="M55 862q0 57 17.5 116.5t52.5 109t84 81t115 31.5q63 0 113 -31.5t84 -81t51.5 -108.5t17.5 -117q0 -57 -17.5 -116.5t-52.5 -108.5t-85 -80t-113 -31q-66 0 -115 31t-83 80t-51.5 108.5t-17.5 116.5zM104 864q0 -59 19.5 -118.5t60.5 -104.5q-25 53 -35 108.5t-10 112.5 t10.5 114.5t34.5 110.5q-41 -47 -60.5 -105t-19.5 -118zM190 862q0 -137 51.5 -201.5t116.5 -64.5q33 0 66 17.5t59.5 51t42 82.5t15.5 115t-16.5 116t-42 84t-59.5 51t-67 17q-63 0 -114.5 -65.5t-51.5 -202.5zM225 0q164 299 325 595t327 595h174q-166 -299 -329 -595 t-329 -595h-168zM317 59h37l598 1074h-41zM682 328q0 57 17.5 116.5t52 108.5t84 81t114.5 32q63 0 113.5 -32t84.5 -81t51.5 -109.5t17.5 -115.5q0 -57 -17.5 -116.5t-52.5 -109t-85.5 -80t-113.5 -30.5t-113.5 30.5t-84 80t-51 108.5t-17.5 117zM731 328q0 -59 20.5 -118 t61.5 -104q-25 51 -36 107.5t-11 114.5q0 57 11 113.5t36 109.5q-41 -45 -61.5 -103.5t-20.5 -119.5zM817 328q0 -137 51.5 -202t116.5 -65q33 0 65.5 17.5t59.5 51.5t42 83t15 115t-16 116t-42 83.5t-59.5 51t-66.5 17.5q-63 0 -114.5 -65.5t-51.5 -202.5z" />
<glyph unicode="&#x26;" horiz-adv-x="1243" d="M55 387q0 88 43 150.5t108.5 109.5t141.5 81t144 63q-16 53 -27.5 107t-11.5 110q0 47 13 92t38.5 81t64.5 57.5t90 21.5q45 0 84 -18.5t68 -49.5t45 -72t16 -84q0 -68 -26.5 -109.5t-69.5 -71.5t-95 -50.5t-101 -40.5q14 -31 31.5 -59.5t35.5 -57.5q94 -2 187.5 -2 h187.5q45 0 74.5 32t29.5 77q0 33 -18 53t-53 20q-14 0 -24.5 -5t-20.5 -5q-8 0 -22.5 16.5t-18.5 22.5q39 33 86 33q55 0 94 -43t39 -98q0 -31 -13.5 -60t-35.5 -51q-33 -33 -74 -42t-84 -9q-25 0 -48.5 1t-45.5 1q51 -39 77.5 -94.5t26.5 -118.5q0 -98 -55 -182 q12 -37 19.5 -75t7.5 -77q0 -82 -31 -153.5t-85 -126t-126 -85t-154 -30.5q-111 0 -205 56t-147 155l51 26q41 -74 113 -125t158 -51q63 0 113 31t85 78t52.5 106.5t17.5 116.5v24q-61 -41 -134 -59t-147 -18q-88 0 -172 26.5t-150.5 77.5t-106.5 126t-40 171zM115 379 q0 -82 44.5 -150.5t110.5 -113.5q-47 55 -72.5 125.5t-25.5 142.5q0 111 57 209q-51 -39 -82.5 -93.5t-31.5 -119.5zM229 379q0 -68 25 -128.5t69 -106.5t103 -73.5t127 -27.5q66 0 128.5 23.5t115.5 62.5q-12 63 -37 121.5t-55.5 114t-63.5 110.5t-61 111q-51 -4 -90 -43 t-39 -92q0 -16 6 -35q18 29 47 28q18 0 36.5 -10t32 -25.5t22.5 -34t9 -36.5q0 -25 -17.5 -43.5t-41.5 -18.5q-12 0 -23.5 5.5t-21.5 9.5q-49 25 -78 63.5t-29 96.5q0 72 45 124t113 68q-10 23 -19.5 46.5t-19.5 45.5q-23 -10 -42 -18t-40 -19q-88 -43 -144.5 -128 t-56.5 -191zM512 1036q0 -57 11.5 -111.5t31.5 -107.5q39 16 85 32.5t84 40t63.5 58.5t25.5 88q0 66 -41 113t-110 47q-70 0 -110 -47t-40 -113zM686 588q57 -82 115.5 -160t103.5 -168q25 52 25 113q0 92 -56.5 153.5t-150.5 61.5h-37zM758 389q45 -84 75.5 -173t30.5 -183 q0 -66 -19.5 -130.5t-58.5 -117.5q53 47 85 108.5t32 133.5q0 98 -45 191t-100 171z" />
<glyph unicode="'" horiz-adv-x="292" d="M55 936l66 96q-29 6 -46.5 33t-17.5 55q0 37 27 63.5t63 26.5q37 0 64 -26.5t27 -63.5q0 -31 -19 -55l-117 -164zM115 1120q0 -33 32 -33q12 0 22.5 9.5t10.5 21.5q0 14 -10 23.5t-23 9.5q-14 0 -23 -9t-9 -22z" />
<glyph unicode="(" horiz-adv-x="460" d="M55 508q0 100 15.5 207.5t55.5 206t107.5 178.5t172.5 121v-68q-66 -41 -105 -121t-60.5 -173t-28.5 -187t-7 -164q0 -74 6 -167t26.5 -185.5t60.5 -171t108 -121.5v-68q-102 41 -170 120t-108 177t-56.5 207t-16.5 209zM111 510q0 -113 22.5 -225.5t69.5 -214.5 q-33 106 -47.5 216.5t-14.5 221.5t14.5 222.5t47.5 217.5q-47 -102 -69.5 -214.5t-22.5 -223.5z" />
<glyph unicode=")" horiz-adv-x="460" d="M55 -137q68 43 108 121.5t60.5 171t26.5 185.5t6 167q0 70 -7 164t-28.5 187t-60.5 173t-105 121v68q104 -41 172 -121t108 -178.5t55.5 -206t15.5 -207.5t-16.5 -209t-56.5 -207t-107.5 -177t-170.5 -120v68zM258 70q47 102 69.5 214.5t22.5 223.5q0 113 -22.5 225.5 t-69.5 214.5q33 -106 47 -218t14 -222q0 -111 -14 -221.5t-47 -216.5z" />
<glyph unicode="*" horiz-adv-x="446" d="M55 989l109 64l-109 61l31 51l109 -63v127h59v-125l108 63l29 -51l-108 -63l108 -64l-29 -51l-108 61v-125h-59v127l-109 -61z" />
<glyph unicode="+" horiz-adv-x="798" d="M55 723v90h297v299h90v-299h301v-90h-299v-297h-90v297h-299z" />
<glyph unicode="," horiz-adv-x="290" d="M55 76q0 37 27 63.5t63 26.5q37 0 64 -26.5t27 -63.5q0 -31 -19 -56l-86 -114l-47 35l35 47q-29 6 -46.5 32.5t-17.5 55.5zM113 76q0 -33 32 -33q12 0 22.5 9.5t10.5 21.5q0 14 -10 23t-23 9q-14 0 -23 -9t-9 -21z" />
<glyph unicode="-" horiz-adv-x="389" d="M55 424v176h279v-176h-279zM115 483h159v58h-159v-58z" />
<glyph unicode="." horiz-adv-x="292" d="M55 74q0 39 27 65.5t65 26.5q39 0 65 -27.5t26 -64.5t-27 -63.5t-64 -26.5t-64.5 25.5t-27.5 64.5zM115 74q0 -14 10 -22.5t22 -8.5t21.5 9.5t9.5 21.5t-8 22t-23 10q-33 0 -32 -32z" />
<glyph unicode="/" horiz-adv-x="602" d="M55 -369l394 1727h98l-395 -1727h-97z" />
<glyph unicode="0" horiz-adv-x="747" d="M55 401q0 76 19.5 150t59.5 131t100.5 92t140.5 35t139 -35t99 -92t59.5 -129t19.5 -147q0 -76 -20.5 -149t-60.5 -130t-99 -92t-139 -35t-139.5 35t-99.5 91t-59.5 128t-19.5 147zM113 408q0 -72 24.5 -143t71.5 -128q-29 59 -44 125t-15 135q0 70 15 139.5t44 135.5 q-47 -53 -71.5 -122t-24.5 -142zM207 403q0 -66 10 -127t31.5 -109t53.5 -78t73 -30q63 0 111.5 29t81 77t48 108.5t15.5 125.5q0 66 -16.5 128.5t-49.5 111.5t-80 80t-110 31q-41 0 -73 -30t-53.5 -79t-31.5 -111.5t-10 -126.5z" />
<glyph unicode="1" horiz-adv-x="548" d="M55 0v59h148v691h-99v59h250v-750h140v-59h-439zM262 59h33v691h-33v-691z" />
<glyph unicode="2" horiz-adv-x="591" d="M55 0q94 150 150.5 240t89.5 142t49 77.5t29 46.5q14 25 23.5 52.5t9.5 55.5q0 47 -32 90.5t-85 43.5q-39 0 -70 -20.5t-52.5 -51.5t-32.5 -68t-11 -69l-60 2q0 51 18.5 99t50.5 86t76 60.5t97 22.5t96 -19.5t73 -52t46.5 -78t16.5 -96.5q0 -92 -52 -172l-211 -332h230 v-59h-449zM162 59h43q59 92 117.5 181.5t113.5 181.5q20 33 31.5 68.5t11.5 72.5q0 51 -20 92q4 -12 4 -23v-24q0 -76 -41 -133z" />
<glyph unicode="3" horiz-adv-x="626" d="M55 127l49 31q23 -35 67 -65t89 -30q74 0 112 58.5t38 132.5q0 76 -43 141.5t-131 73.5h-66l215 281h-258v59h379l-215 -281q55 0 105 -20.5t89 -55t62.5 -84t23.5 -104.5q0 -57 -23.5 -105t-61 -84t-88 -55.5t-105.5 -19.5q-72 0 -135.5 34t-102.5 93zM418 96 q43 29 68.5 73t25.5 95q0 53 -25.5 97.5t-68.5 72.5q27 -35 41 -78t14 -90q0 -92 -55 -170z" />
<glyph unicode="4" horiz-adv-x="782" d="M55 137l285 672h164l-258 -612h227v485h150v-485h104v-60h-104v-256h-150v256h-418zM145 197h35l234 553h-35zM530 -59h35v196h-35v-196zM530 197h35v428h-35v-428z" />
<glyph unicode="5" horiz-adv-x="616" d="M55 137l51 29q10 -16 25.5 -34.5t35 -33t41 -23.5t42.5 -9q37 0 65.5 19t48 50t28.5 71t9 81q0 39 -9 77.5t-27.5 67.5t-46 47.5t-64.5 18.5q-45 0 -80 -24.5t-70 -51.5v387h400v-59h-340v-218q70 33 139 33q63 0 111.5 -21.5t81 -60.5t49 -90t16.5 -110 q0 -55 -21.5 -106.5t-58.5 -90.5t-86 -62.5t-106 -23.5q-72 0 -134.5 38t-99.5 99zM395 487q35 -41 52.5 -93t17.5 -105q0 -109 -59 -193q47 31 71.5 81.5t24.5 105.5q0 61 -23.5 118.5t-83.5 85.5z" />
<glyph unicode="6" horiz-adv-x="753" d="M55 391q0 66 16.5 130.5t51.5 119.5l336 551h180l-240 -395q72 -6 128.5 -44t94 -95.5t57 -125t19.5 -133.5q0 -70 -20.5 -142.5t-60 -131.5t-100 -97t-138.5 -38t-138.5 36.5t-101.5 95t-62.5 129.5t-21.5 140zM119 336q6 -49 26.5 -100.5t52 -92.5t75.5 -67.5 t100 -26.5h12l250 410q-6 45 -25.5 95t-51.5 91t-75 67.5t-98 26.5h-20zM119 449l416 684h-43q-80 -131 -163 -259.5t-157 -263.5q-23 -41 -36 -78.5t-17 -82.5zM467 70q78 37 120 116.5t50 163.5z" />
<glyph unicode="7" horiz-adv-x="610" d="M55 -147l316 897h-224v59h408l-338 -956h-162zM139 -88h37l295 838h-37z" />
<glyph unicode="8" horiz-adv-x="792" d="M55 322q0 104 59.5 186t153.5 117q-49 31 -78.5 81t-29.5 109q0 49 19.5 90t52 71t75.5 47t90 17t90 -17t75 -47t51.5 -71t19.5 -90q0 -59 -30 -109.5t-79 -80.5q94 -37 153.5 -119t59.5 -184q0 -70 -27.5 -128.5t-74.5 -101.5t-108.5 -67.5t-129.5 -24.5t-129 24.5 t-109 67.5t-76 101.5t-28 128.5zM113 324q0 -55 24.5 -105.5t65.5 -87.5q-47 86 -47 193q0 106 47 192q-41 -37 -65.5 -87t-24.5 -105zM215 324q0 -66 18.5 -114t49 -81t70.5 -48t83 -15q45 0 89 17t78 50t55.5 81.5t21.5 109.5q0 59 -22.5 107t-59.5 82t-83 52.5t-93 18.5 q-41 0 -78 -14.5t-65.5 -46t-46 -81t-17.5 -118.5zM217 815q0 -70 53 -119q-23 57 -22 119q0 59 22 117q-53 -49 -53 -117zM309 815q0 -84 38 -124t85 -40q53 0 97 44t44 120t-44 119t-97 43q-47 0 -85 -39t-38 -123z" />
<glyph unicode="9" horiz-adv-x="753" d="M55 403q0 70 20.5 142.5t60.5 132t99.5 97.5t139.5 38q78 0 138 -37t101 -95t62.5 -129t21.5 -140q0 -66 -16 -130.5t-51 -119.5l-336 -551h-180l239 395q-72 6 -128 44t-94 95.5t-57.5 125t-19.5 132.5zM117 453l170 280q-78 -37 -120 -116.5t-50 -163.5zM119 344 q8 -47 27.5 -97t50 -91t73.5 -67t97 -26h22l246 404q-6 49 -26.5 99t-52.5 92t-77 69t-102 27h-8zM219 -330h43q80 131 161 260t159 263q23 39 36 77.5t17 83.5z" />
<glyph unicode=":" horiz-adv-x="292" d="M55 74q0 39 27 65.5t65 26.5q39 0 65 -27.5t26 -64.5t-27 -63.5t-64 -26.5t-64.5 25.5t-27.5 64.5zM55 381q0 39 27 65.5t65 26.5q39 0 65 -27.5t26 -64.5t-27 -63.5t-64 -26.5t-64.5 25.5t-27.5 64.5zM115 74q0 -14 10 -22.5t22 -8.5t21.5 9.5t9.5 21.5t-8 22t-23 10 q-33 0 -32 -32zM115 381q0 -14 10 -22.5t22 -8.5t21.5 9.5t9.5 21.5t-8 22.5t-23 10.5q-33 0 -32 -33z" />
<glyph unicode=";" horiz-adv-x="292" d="M55 381q0 39 27 65.5t65 26.5q39 0 65 -27.5t26 -64.5t-27 -63.5t-64 -26.5t-64.5 25.5t-27.5 64.5zM57 76q0 37 26 63.5t64 26.5q37 0 64 -25.5t27 -64.5q0 -31 -19 -56l-86 -114l-47 35l35 47q-29 6 -46.5 32.5t-17.5 55.5zM115 76q0 -33 32 -33q12 0 22.5 9.5 t10.5 21.5q0 14 -10 23t-23 9q-14 0 -23 -9t-9 -21zM115 381q0 -14 10 -22.5t22 -8.5t21.5 9.5t9.5 21.5t-8 22.5t-23 10.5q-33 0 -32 -33z" />
<glyph unicode="&#x3c;" horiz-adv-x="706" d="M55 674v69l557 283l39 -78l-475 -239l475 -242l-39 -76z" />
<glyph unicode="=" horiz-adv-x="796" d="M55 547v92h686v-92h-686zM55 756v92h686v-92h-686z" />
<glyph unicode="&#x3e;" horiz-adv-x="706" d="M55 467l475 242l-475 239l39 78l557 -283v-69l-557 -283z" />
<glyph unicode="?" horiz-adv-x="772" d="M55 901q0 66 29 119t75 91t105.5 58.5t120.5 20.5q70 0 131.5 -28.5t105.5 -77t69.5 -110.5t25.5 -132q0 -43 -9.5 -87t-29 -84t-49 -73t-70.5 -51q-29 -12 -62.5 -30.5t-62 -41t-48 -52.5t-19.5 -67v-108h-60v108q0 80 41 142.5t101 109.5q57 45 82.5 103.5t25.5 130.5 q0 45 -11 96t-37 93t-67 69.5t-98 27.5q-41 0 -81 -17t-71.5 -47t-52 -68t-22.5 -78q35 0 65.5 -29t30.5 -64q0 -25 -17.5 -42t-41.5 -17q-35 0 -63 27.5t-32 62.5q-2 10 -3 22.5t-1 22.5zM256 74q0 37 25.5 64.5t64.5 27.5t65.5 -26.5t26.5 -65.5t-27.5 -64.5t-64.5 -25.5 t-63.5 26.5t-26.5 63.5zM315 74q0 -12 9.5 -21.5t21.5 -9.5t22.5 8.5t10.5 22.5q0 33 -33 32q-14 0 -22.5 -10t-8.5 -22zM522 596q72 33 103.5 100.5t31.5 141.5q0 66 -25.5 125t-72.5 102q29 -47 43 -102.5t14 -110.5q0 -70 -22.5 -137.5t-71.5 -118.5z" />
<glyph unicode="@" horiz-adv-x="958" d="M55 563q0 98 38 183t102.5 147.5t151.5 98.5t185 36q76 0 143.5 -23.5t118 -67.5t80 -107.5t29.5 -143.5q0 -43 -10 -94t-31.5 -95t-58.5 -75t-88 -31q-80 0 -113 74q-27 -35 -63.5 -58.5t-83.5 -23.5q-41 0 -72 18.5t-51.5 47t-30.5 65.5t-10 74q0 45 14 93t42 88 t68 66.5t91 26.5q35 0 63.5 -15.5t51.5 -43.5l4 35h65q-4 -78 -14 -156t-21 -162q0 -25 16.5 -43t43.5 -18q35 0 58.5 25.5t36.5 61.5t18.5 74.5t5.5 65.5q0 68 -25 119t-67 86t-98 52.5t-120 17.5q-84 0 -156.5 -32t-127 -86.5t-86 -128t-31.5 -155.5q0 -68 25.5 -126 t68.5 -101t101.5 -67.5t125.5 -24.5q90 0 162 37.5t133 99.5l49 -47q-61 -72 -155 -115t-191 -43q-82 0 -152.5 30.5t-122.5 84t-82 125t-30 151.5zM358 588q0 -23 5.5 -46.5t17.5 -45t30.5 -34.5t43.5 -13q33 0 60.5 21.5t46 54t28.5 68t10 64.5q0 20 -5 45t-17.5 44.5 t-31 33t-42.5 13.5q-35 0 -61.5 -21.5t-45 -52.5t-29 -67t-10.5 -64z" />
<glyph unicode="A" horiz-adv-x="1247" d="M-262 -203q0 70 48 123t120 53q23 0 47 -8t44.5 -23.5t34 -37t13.5 -47.5q0 -25 -18.5 -43.5t-42.5 -18.5q-18 0 -36 10.5t-30 25.5t-20.5 33.5t-8.5 37.5v10q-43 -8 -67.5 -40t-24.5 -75q0 -39 17.5 -69.5t45 -51t62.5 -31t70 -10.5q66 0 117 25t92 66t71.5 93t55.5 105 q-57 29 -104.5 72t-82.5 96t-54 113.5t-19 126.5q0 88 33.5 162.5t91 130t134 86t162.5 30.5q23 0 42.5 -2t41.5 -6q27 76 64 157t89 148.5t123 110.5t165 43h157v-59h-120v-1074h141v-59h-440v59h149v179q0 147 -71.5 261.5t-217.5 162.5q-57 -176 -99 -355.5t-110 -351.5 q68 -25 140 -25v-57q-88 0 -162 27q-29 -63 -63.5 -122t-82 -104t-107.5 -71.5t-136 -26.5q-47 0 -93 15.5t-82 44t-57.5 69.5t-21.5 92zM127 332q0 -111 62.5 -206t160.5 -146q66 170 108 346t97 350q-35 6 -66 6q-74 0 -140 -26.5t-115.5 -72.5t-78 -110.5t-28.5 -140.5z M631 717q86 -29 154.5 -84t113.5 -133v608q-53 -25 -95 -70t-75 -98t-56.5 -112.5t-41.5 -110.5zM958 59h35v1071q-10 0 -17 -1t-18 -3v-1067z" />
<glyph unicode="B" horiz-adv-x="1118" d="M55 770q0 104 36 190.5t99.5 150t150.5 98t189 34.5h9q61 90 143 162l41 -43q-31 -27 -52.5 -58.5t-41.5 -66.5q74 -8 137 -31.5t110.5 -63.5t74 -99.5t26.5 -139.5q0 -88 -52.5 -143t-129.5 -84q55 -16 104 -48t86 -76t57.5 -98.5t20.5 -113.5q0 -70 -28.5 -131.5 t-78.5 -108.5q-66 -63 -139.5 -81.5t-161.5 -18.5h-438v59h148v265q-72 25 -128.5 69.5t-97.5 104t-62.5 129t-21.5 143.5zM115 770q0 -129 65.5 -232.5t184.5 -152.5q0 57 -1.5 110.5t-1.5 104.5q0 76 4.5 147.5t18.5 142.5t41 141.5t72 148.5h-33q-20 0 -56 -10.5 t-55 -18.5q-57 -25 -102 -63.5t-76 -89t-46 -109t-15 -119.5zM424 59h33v633q0 76 3 150.5t15 150.5q-51 -150 -51 -301v-633zM516 59q23 0 46.5 -1t45.5 -1q63 0 117.5 18.5t94.5 55.5t63.5 90t23.5 123q0 57 -19.5 110.5t-55 93.5t-85 63.5t-110.5 23.5h-121v-279 q59 0 118.5 18.5t108.5 53.5l35 -47q-57 -41 -124.5 -62.5t-137.5 -21.5v-238zM516 696q59 0 113.5 9.5t94.5 35t63.5 69.5t23.5 114q0 104 -60.5 163.5t-158.5 79.5q-53 -113 -64.5 -230.5t-11.5 -240.5zM791 1128q41 -41 60 -100t19 -117q0 -41 -10 -81.5t-35 -75.5 q92 53 93 159q0 66 -35 125.5t-92 89.5zM893 125q51 41 81 97.5t30 121.5q0 61 -27 115.5t-74 95.5q63 -96 64 -207q0 -59 -18.5 -117.5t-55.5 -105.5z" />
<glyph unicode="C" horiz-adv-x="1052" d="M55 596q0 121 43 229.5t119 189.5t181.5 129t228.5 48q61 0 122.5 -20.5t110.5 -59.5t80 -92t31 -121q0 -18 -6.5 -39.5t-18.5 -40t-29.5 -31t-39.5 -12.5q-37 0 -66 34t-29 69q0 27 17.5 45t44.5 18q20 0 37.5 -10t29.5 -27q-2 51 -26.5 92t-62.5 71t-85 46t-92 16 q-115 0 -196.5 -46t-134 -121.5t-78 -173t-25.5 -197.5q0 -96 24.5 -191.5t75.5 -171t130 -123t190 -47.5q45 0 90 14.5t87 39t79 56.5t65 67l45 -37q-74 -92 -178 -145.5t-223 -53.5q-121 0 -220.5 50t-170 134t-110.5 190.5t-40 221.5zM115 596q0 -96 29.5 -186.5 t86.5 -165.5q-41 80 -59 168t-18 180t18.5 182t63.5 172q-59 -74 -90 -165t-31 -185z" />
<glyph unicode="D" horiz-adv-x="1320" d="M55 743q0 100 36 182.5t99.5 141.5t147.5 92t182 33q76 123 178 213l39 -43q-33 -29 -65.5 -80t-53.5 -90q141 0 257 -37t219 -139q84 -86 128 -191.5t44 -224.5q0 -123 -45 -232.5t-125 -191.5t-188.5 -129t-233.5 -47h-443v59h150v258q-72 20 -131.5 61.5t-102.5 97.5 t-67.5 125t-24.5 142zM113 743q0 -61 20.5 -118.5t55 -105.5t84 -84t108.5 -56q0 47 -1 95t-1 95q0 150 18 288t90 273q-80 -4 -148.5 -34.5t-118.5 -81.5t-78.5 -120t-28.5 -151zM438 59h35v633q0 76 2 150.5t14 150.5q-51 -150 -51 -301v-633zM532 59h97q106 0 195 46.5 t152.5 121t98.5 171t35 198.5q0 100 -35 197.5t-98.5 172t-152.5 121t-195 46.5h-37q-41 -96 -50.5 -199t-9.5 -207v-371q115 4 211 68l33 -47q-113 -76 -244 -80v-238zM1024 188q88 78 136 184.5t48 223.5t-48 223.5t-136 184.5q72 -86 108.5 -191.5t36.5 -216.5 t-36.5 -216.5t-108.5 -191.5z" />
<glyph unicode="E" horiz-adv-x="888" d="M55 348q0 115 70 203t174 127q-72 33 -122 95.5t-50 144.5q0 63 27.5 113t72.5 86t101.5 54.5t115.5 18.5q53 0 101.5 -18.5t85.5 -49t59.5 -71.5t22.5 -88q0 -29 -15.5 -47.5t-44.5 -18.5q-41 0 -67.5 34t-26.5 73q0 25 14.5 41t40.5 18q-29 37 -73.5 53.5t-91.5 16.5 q-43 0 -75 -16.5t-53.5 -44.5t-33 -63.5t-11.5 -74.5q0 -49 16.5 -91t45.5 -73t70 -48t90 -17h125v-60h-80q-70 0 -130.5 -18.5t-104.5 -57.5t-68.5 -96t-24.5 -135q0 -53 15.5 -103.5t46 -89.5t74.5 -62.5t104 -23.5q115 0 204 58.5t117 173.5l58 -15q-16 -66 -52.5 -118 t-87.5 -86.5t-112.5 -53t-126.5 -18.5q-74 0 -145.5 24.5t-128 70.5t-91.5 109.5t-35 143.5zM115 352q0 -55 21.5 -104t60.5 -88q-41 86 -41 180q0 66 19.5 127.5t60.5 112.5q-53 -41 -87 -100.5t-34 -127.5zM186 920q0 -45 21.5 -84t56.5 -68q-47 72 -47 160q0 61 23 119 q-25 -27 -39.5 -60t-14.5 -67z" />
<glyph unicode="F" horiz-adv-x="1280" d="M55 242q0 41 17.5 80.5t47.5 70.5t67.5 49.5t80.5 18.5q35 0 66 -14.5t53.5 -38t35.5 -55t13 -64.5q0 -37 -21.5 -69t-62.5 -32t-66.5 33t-25.5 72q0 23 12.5 42t38.5 19q31 0 54 -18q-27 65 -95 65h-2q-31 0 -59.5 -13t-50 -35.5t-33.5 -51.5t-12 -59q0 -51 21.5 -92 t56 -69t79.5 -42t92 -14q57 0 102.5 28.5t77 72.5t53 96t32.5 102q-68 25 -123 65.5t-95 96t-62.5 121t-22.5 136.5q0 86 28.5 163t80.5 135.5t124 96.5t158 50q43 74 110.5 127t141.5 94l28 -51q-53 -29 -101 -69t-71 -97h402v-281h-58v222h-360q-8 -41 -10 -83t-2 -83 v-279h223v168h59v-395h-59v168h-223v-109q0 -41 -2 -82t-11 -82q23 0 47.5 2t47.5 9l12 -58q-49 -12 -101 -12h-20q-23 -68 -59.5 -128t-88 -105.5t-116 -72t-139.5 -26.5q-61 0 -116.5 19.5t-99 54.5t-69 86t-25.5 117zM383 748q0 -125 68.5 -222.5t185.5 -142.5 q6 51 6 104v394q0 61 9 122.5t32 118.5q-68 -16 -123 -50t-95 -83t-61.5 -110.5t-21.5 -130.5zM633 160q53 70 78.5 154.5t25.5 172.5v455q0 45 1 88t7 86q-25 -55 -34 -115.5t-9 -119.5v-394q0 -86 -15 -168.5t-54 -158.5z" />
<glyph unicode="G" horiz-adv-x="1214" d="M55 590q0 123 42 232.5t118 191.5t180.5 130t231.5 48q61 0 122.5 -20.5t110.5 -59.5t80 -92t31 -121q0 -43 -23.5 -83t-73.5 -40q-41 0 -64.5 34t-23.5 71q0 25 11.5 44t40.5 19q39 0 73 -39q-2 49 -26.5 91t-62.5 72t-85 46t-92 16q-113 0 -194.5 -46t-135 -120.5 t-79 -171t-25.5 -196.5q0 -86 22.5 -181.5t71.5 -173t126 -129t183 -51.5q66 0 121.5 19.5t108.5 54.5q16 10 39 21v245h-248v58h524v-58h-125v-278q53 -49 53 -117h-59q0 41 -28.5 69.5t-69.5 28.5q-16 0 -27.5 -4t-25.5 -12q-70 -41 -135.5 -64.5t-147.5 -23.5 q-119 0 -217 50t-170 133t-112 188.5t-40 218.5zM113 594q0 -94 29.5 -184.5t88.5 -165.5q-41 78 -60 168t-19 180q0 92 19.5 183t64.5 171q-59 -74 -91 -165t-32 -187zM942 162q16 0 35 -6v245h-35v-239z" />
<glyph unicode="H" horiz-adv-x="1269" d="M-362 -207q0 25 9 50.5t25.5 47t39 36t48.5 14.5q37 0 67 -35t30 -72q0 -25 -17.5 -43t-44.5 -18q-29 0 -52.5 20.5t-33.5 44.5q-12 -23 -12 -49q0 -47 22.5 -84t57.5 -62.5t79 -40t87 -14.5q74 0 123 37t79.5 92.5t43 122t12.5 125.5v1168h-146v59h443v-59h-142v-461 h566v461h-150v59h442v-59h-141v-1074h141v-59h-442v59h150v553h-566v-579q0 -90 -26.5 -180.5t-78.5 -162t-130 -116.5t-178 -45q-55 0 -110.5 18.5t-98.5 53t-69.5 83t-26.5 109.5zM233 -227q33 59 48.5 125.5t15.5 134.5v1100h-37v-1168q0 -49 -6 -97t-21 -95zM979 59h35 v1074h-35v-1074z" />
<glyph unicode="I" horiz-adv-x="552" d="M55 0v59h148v1074h-148v59h443v-59h-142v-1074h142v-59h-443zM262 59h35v1074h-35v-1074z" />
<glyph unicode="J" horiz-adv-x="563" d="M-276 -225q0 20 8 44.5t22.5 44t35 33t42.5 13.5q35 0 64.5 -32t29.5 -66q0 -27 -18.5 -42.5t-44.5 -15.5q-23 0 -43.5 12.5t-32.5 32.5q-4 -8 -4 -16v-19q0 -35 17.5 -66.5t45 -56t61.5 -39t68 -14.5q63 0 107.5 34t73 85t42 110.5t13.5 112.5v1203h-145v59h442v-59 h-143v-1139q0 -80 -23 -162t-68 -149.5t-112.5 -110.5t-157.5 -43q-53 0 -104.5 16.5t-90 48t-62 77.5t-23.5 104zM231 -276q39 59 57.5 128.5t18.5 141.5v1139h-37v-1203q0 -53 -8 -105t-31 -101z" />
<glyph unicode="K" horiz-adv-x="1689" d="M55 242q0 45 16.5 84t46 68.5t68.5 47t84 17.5q33 0 62.5 -13.5t53.5 -35t37 -52t13 -63.5q0 -39 -17.5 -73t-64.5 -34q-41 0 -68.5 32t-27.5 73q0 25 15.5 43t41.5 18q27 0 50 -18q-12 31 -38 47t-61 16q-66 0 -108.5 -48t-42.5 -111q0 -51 20.5 -91t55 -68t78.5 -42 t91 -14q80 0 134.5 49t87 119.5t47 150.5t14.5 143v646h-149v59h442v-59h-143v-433l378 435q27 27 55.5 42t65.5 15q31 0 61.5 -12.5t55.5 -33t39 -49t14 -61.5q0 -14 -4 -31.5t-12 -33t-21.5 -25.5t-31.5 -10q-37 0 -69 31.5t-32 68.5q0 25 17.5 42.5t42.5 17.5q18 0 30 -6 q-33 43 -86 43q-25 0 -44 -10.5t-35 -26.5q-14 -14 -31 -33t-48.5 -55.5t-88 -101t-148.5 -171.5q94 -135 185.5 -270t187.5 -270q29 -41 69.5 -78t94.5 -37q31 0 56.5 16.5t43.5 41t27.5 54t9.5 58.5h59q0 -51 -19.5 -97.5t-53 -80t-79.5 -53t-98 -19.5q-78 0 -144 37 t-114 100q-86 119 -167.5 239t-165.5 240v-129q0 -96 -28 -189t-83 -167t-136 -120t-188 -46q-59 0 -114.5 19.5t-97.5 55.5t-66.5 87t-24.5 115zM633 164q53 70 76.5 153.5t23.5 169.5v646h-31v-646q0 -84 -16 -165.5t-53 -157.5zM838 662q86 -123 166.5 -247t171.5 -243 q27 -35 58.5 -60.5t74.5 -39.5q-25 18 -44.5 40.5t-37.5 47.5q-96 129 -185.5 262t-181.5 266z" />
<glyph unicode="L" horiz-adv-x="999" d="M55 86q0 61 44 96t104 35q41 0 83 -11t79 -24q10 35 14 72t4 74v487q0 70 19.5 141.5t59.5 130t99.5 96.5t136.5 38q47 0 91.5 -15.5t79 -43t55 -67.5t20.5 -89q0 -45 -30.5 -84t-77.5 -39q-35 0 -66 30.5t-31 65.5q0 29 18.5 44t45.5 15t47 -14t33 -37q2 8 3 14.5 t1 14.5q0 31 -16.5 57.5t-41 46t-55.5 30.5t-59 11q-49 0 -83 -23.5t-55.5 -59.5t-30.5 -80t-9 -85v-514q0 -68 -16.5 -132t-51.5 -124q82 -35 191.5 -90t224 -106t225.5 -88t197 -37q70 0 123 30.5t75 98.5l49 -19q-2 -10 -5 -20t-7 -21q-66 -176 -250 -176 q-96 0 -208.5 42t-227.5 100.5t-225.5 122t-202.5 106.5q-45 -53 -106.5 -87t-133.5 -34q-55 0 -94 31t-39 90zM115 88q0 -29 21.5 -46t49.5 -17q53 0 93 28.5t65 75.5q-33 10 -67.5 19.5t-69.5 9.5t-63.5 -15.5t-28.5 -54.5zM426 188q27 47 39 101.5t12 109.5v514 q1 60 15 109q-27 -47 -38.5 -100.5t-11.5 -106.5v-487q0 -35 -3 -70t-13 -70z" />
<glyph unicode="M" horiz-adv-x="1511" d="M55 0v59h146v1074h-146v59h310l380 -610l412 610h299v-59h-141v-1074h141v-59h-442v59h149v1037l-385 -572q41 -74 70 -162t29 -174q0 -37 -8.5 -75.5t-28 -70.5t-50 -51.5t-75.5 -19.5q-39 0 -70 18.5t-51.5 47.5t-31.5 64.5t-11 70.5q0 72 31.5 142.5t70.5 129.5 l-393 627v-1012h141v-59h-346zM291 1133l432 -687q25 -39 45.5 -79.5t36.5 -83.5q-14 70 -41 135t-64 125l-368 590h-41zM610 172q0 -25 6.5 -49.5t20.5 -46t33.5 -34.5t48.5 -13q39 0 52 30.5t13 61.5q0 66 -31.5 139.5t-64.5 128.5q-31 -47 -54.5 -103.5t-23.5 -113.5z M1221 59h34v1074h-34v-1074z" />
<glyph unicode="N" horiz-adv-x="1449" d="M55 240q0 45 17.5 83.5t47.5 68.5t68.5 46.5t83.5 16.5q78 0 121 -47.5t43 -122.5q0 -37 -19.5 -68t-60.5 -31t-68.5 32t-27.5 73q0 27 15.5 43t41.5 16q27 0 50 -16q-29 65 -95 65h-2q-31 0 -59.5 -13t-50 -35.5t-33.5 -51.5t-12 -59q0 -53 21.5 -93.5t56 -68 t79.5 -41.5t95 -14q92 0 160.5 41.5t114.5 108.5t69.5 148.5t23.5 163.5v645h-178v60h309l467 -856v637q0 68 6.5 157t33 167.5t82.5 134t155 55.5q70 0 121 -43t51 -115q0 -59 -43 -94t-101 -35q-18 0 -36.5 7t-35 20.5t-26.5 31t-10 35.5q0 27 18.5 44.5t44.5 17.5 q33 0 64 -23.5t39 -56.5q27 23 26 55q0 47 -36.5 72.5t-77.5 25.5q-74 0 -117 -43t-64.5 -105t-27.5 -136t-6 -135v-1010h-47l-551 1008v-521q0 -94 -28 -187t-82 -168t-134 -121t-184 -46q-61 0 -117.5 19.5t-100 54.5t-69 86t-25.5 117zM795 1130l2 -6l536 -981v68 l-502 919h-36z" />
<glyph unicode="O" horiz-adv-x="1220" d="M55 598q0 117 41 227.5t114 195.5t175 137t225 52t225.5 -52t175 -137t113.5 -195.5t41 -227.5t-41 -226.5t-113.5 -195.5t-175 -138t-225.5 -52t-225 52t-175 138t-114 195.5t-41 226.5zM115 598q0 -104 34.5 -204.5t104.5 -180.5q-53 86 -77.5 185.5t-24.5 199.5 t24.5 199.5t77.5 185.5q-70 -78 -104.5 -179.5t-34.5 -205.5zM211 598q0 -86 24.5 -182.5t73.5 -179t124 -137t177 -54.5q100 0 176 54.5t125.5 137t74 179t24.5 182.5q0 104 -30 206.5t-91 188.5q-49 68 -120 114t-159 46t-158.5 -46t-119.5 -114q-61 -86 -91 -188.5 t-30 -206.5zM965 213q70 80 105.5 180.5t35.5 206.5q0 104 -36 203.5t-105 179.5q53 -86 77.5 -185.5t24.5 -199.5t-24.5 -199.5t-77.5 -185.5z" />
<glyph unicode="P" horiz-adv-x="1073" d="M55 770q0 100 37 186t100.5 149.5t149.5 99.5t186 38q72 96 181 166l30 -49q-31 -23 -56.5 -56.5t-47.5 -66.5q174 -16 278.5 -110.5t104.5 -276.5q0 -80 -30 -141.5t-81 -101.5t-117.5 -60.5t-142.5 -20.5q-29 0 -54.5 3t-53.5 8v-181q102 0 188 50l29 -52 q-102 -57 -217 -57v-238h141v-59h-442v59h147v263q-72 25 -132 69.5t-104.5 103t-69 129t-24.5 146.5zM117 774q0 -135 72.5 -237.5t195.5 -151.5v305q0 127 18 253t84 239q-82 -8 -149.5 -43t-116.5 -88.5t-76.5 -124t-27.5 -152.5zM446 59h33v723q0 72 2.5 143.5 t16.5 141.5q-29 -68 -40.5 -140.5t-11.5 -144.5v-723zM535 825q0 -55 2 -111.5t2 -111.5q37 -6 75 -6q129 0 184.5 75.5t55.5 198.5t-67.5 203t-190.5 101q-41 -78 -51 -169.5t-10 -179.5zM821 1122q47 -51 68.5 -122.5t21.5 -141.5q0 -59 -15 -118.5t-52 -106.5 q59 37 88 98.5t29 130.5q0 78 -36 148.5t-104 111.5z" />
<glyph unicode="Q" horiz-adv-x="1224" d="M55 598q0 117 40 227.5t114 195.5t175 137t224 52t225.5 -52t176 -137t113.5 -195.5t40 -227.5q0 -98 -29.5 -194.5t-85 -176.5t-134 -139t-177.5 -86q86 -35 191.5 -86t216 -99t218 -83t198.5 -35q168 0 219 158l57 -9v-28q0 -123 -67.5 -190.5t-194.5 -67.5 q-86 0 -179 30.5t-185.5 76.5t-181.5 100.5t-169 100.5t-149.5 76.5t-120.5 30.5q-47 0 -93 -16t-82 -46t-58.5 -72t-22.5 -91l-58 12q0 84 52.5 150t128.5 96q-94 29 -168 89.5t-126 139t-80 171t-28 188.5zM113 598q0 -104 35.5 -204.5t105.5 -180.5q-53 86 -77.5 185.5 t-24.5 199.5t24.5 199.5t77.5 185.5q-70 -80 -105.5 -180.5t-35.5 -204.5zM211 598q0 -86 24.5 -182.5t73.5 -179t124 -137t175 -54.5t175 54.5t125 137t75 179t25 182.5t-25 183.5t-74 180t-124.5 137t-176.5 54.5q-102 0 -177 -54.5t-124 -137t-72.5 -180t-23.5 -183.5z M965 213q70 80 104.5 180.5t34.5 204.5t-35 204.5t-104 180.5q53 -86 77.5 -185.5t24.5 -199.5t-24.5 -199.5t-77.5 -185.5zM1311 -311q61 -29 133 -49.5t139 -20.5q49 0 93 16.5t73 61.5q-39 -33 -87 -46t-97 -13q-66 0 -129.5 15t-124.5 36z" />
<glyph unicode="R" horiz-adv-x="1198" d="M55 780q0 96 35 179t95.5 144.5t142.5 97.5t178 40q37 51 83 92t99 76l31 -49q-33 -23 -57.5 -55.5t-47.5 -65.5q162 -16 262.5 -106.5t100.5 -260.5q0 -111 -66.5 -174t-167.5 -92q55 -35 93 -94q90 -141 169.5 -288.5t165.5 -291.5q27 -43 68 -85t96 -42 q31 0 55.5 14.5t42 38t29 51.5t13.5 54l59 -4q-4 -49 -24.5 -91t-54.5 -73t-78 -48t-93 -17q-86 0 -153.5 43t-110.5 114q-66 109 -131.5 217.5t-126.5 219.5q-27 47 -48.5 93t-49.5 91q-23 33 -61 53.5t-85 20.5v-226l68 4l20 -55q-35 -6 -65 -6h-23v-240h141v-59h-442v59 h148v273q-66 27 -122.5 74t-98.5 106t-65.5 128t-23.5 140zM117 791q0 -129 66.5 -233.5t181.5 -160.5v312q0 123 18.5 244t81.5 227q-78 -10 -141.5 -43t-109.5 -83t-71.5 -118t-25.5 -145zM424 59h35v734q0 72 2 141t16 139q-29 -66 -41 -137.5t-12 -142.5v-734zM516 838 l2 -197q33 -8 68 -8q55 0 96 22.5t68.5 59.5t42 84t14.5 96t-14.5 98t-43 87t-72.5 62.5t-104 28.5q-39 -78 -48 -162.5t-9 -170.5zM694 567q6 -8 11.5 -15t9.5 -15q92 -154 176 -310.5t180 -310.5q47 -76 125 -111q-41 41 -74 97q-86 145 -165.5 291.5t-172.5 287.5 q-18 29 -39.5 49.5t-50.5 36.5zM780 1133q45 -47 68.5 -111t23.5 -133q0 -103 -51 -187q51 33 75 80t24 101q0 72 -38 140.5t-102 109.5z" />
<glyph unicode="S" horiz-adv-x="866" d="M55 295q0 41 13.5 80t38 68.5t60.5 48t79 18.5q61 0 106 -42t45 -103q0 -43 -28.5 -81t-75.5 -38q-35 0 -69 27.5t-34 64.5q0 27 18.5 44t45.5 17q23 0 46.5 -12t37.5 -31v13q0 37 -27.5 60.5t-66.5 23.5q-31 0 -55.5 -14.5t-41 -37t-25.5 -50t-9 -56.5 q0 -61 25.5 -108.5t68.5 -81t98 -51t115 -17.5q49 0 93 12t76 38t51 66t19 93q0 76 -35.5 135t-89 112.5t-116 103.5t-115.5 106.5t-89 121t-36 148.5q0 61 22.5 108t61.5 81t90 51.5t109 17.5q57 0 111.5 -18.5t97.5 -53.5v39h59v-313h-59v186q-31 47 -82 71.5t-107 24.5 q-72 0 -118 -42t-46 -115q0 -49 19.5 -88t48.5 -73t63.5 -64.5t65.5 -61.5q47 -49 99.5 -97t96.5 -101.5t72.5 -115t28.5 -137.5q0 -78 -35 -133t-90 -91t-122.5 -52t-135.5 -16t-134.5 19t-119.5 58t-86 98.5t-33 139.5zM238 973q0 -76 35.5 -135.5t89 -111.5t116 -102.5 t115.5 -105.5t89 -121.5t36 -150.5q0 -29 -5 -57.5t-18 -55.5q27 29 42.5 64.5t15.5 74.5q0 78 -37 143.5t-92.5 124t-119 112t-118.5 109.5t-92 115.5t-37 131.5q0 39 12 75q-33 -47 -32 -110z" />
<glyph unicode="T" horiz-adv-x="1105" d="M55 862q0 88 41 153.5t104.5 109.5t142.5 65.5t157 21.5h112q66 0 129.5 -3t126.5 -3q35 0 67 4t55.5 15.5t37.5 34t14 59.5v13t-2 16l60 8q2 -20 2 -40.5v-43.5q0 -53 -15.5 -87t-44 -54.5t-67.5 -27.5t-86 -7q-43 0 -86 4t-84 8v-1049h143v-59h-442v59h147v1061 q-25 2 -50 3t-50 1q-57 0 -119.5 -14t-115 -45t-86 -80t-33.5 -117q0 -39 11 -76.5t34.5 -67.5t56.5 -48.5t76 -18.5q16 0 37 11q-27 8 -49.5 33.5t-22.5 54.5q0 25 17.5 41t41.5 16q41 0 69 -32.5t28 -71.5q0 -53 -38 -82t-87 -29q-53 0 -96.5 23.5t-73 60.5t-46 84 t-16.5 96zM627 59h35v1055q-10 0 -17.5 1t-17.5 1v-1057z" />
<glyph unicode="U" horiz-adv-x="1462" d="M55 788q0 88 36 162t96.5 128.5t139.5 84t165 29.5h360v-59h-256v-713q63 8 118.5 35.5t97.5 70.5t66.5 99.5t24.5 122.5v21t-2 22l60 16q2 -12 3 -24.5t1 -24.5q0 -78 -30 -146.5t-80 -121t-116.5 -86t-142.5 -44.5q0 -66 15.5 -124t48 -101t86 -67.5t131.5 -24.5 q59 0 117.5 20.5t104.5 57.5t74.5 89t28.5 118v805h-121v59h326v-59h-145v-805q0 -80 -37 -144.5t-95.5 -109.5t-131 -69.5t-146.5 -24.5q-86 0 -160 26.5t-129 76.5t-87 120.5t-32 158.5q-78 12 -147.5 50.5t-123.5 95.5t-86 129t-32 151zM115 799q0 -70 26.5 -132.5 t71.5 -111.5t105.5 -83t125.5 -48v706q-66 -6 -125 -32.5t-105 -70.5t-72.5 -102.5t-26.5 -125.5zM504 328q-1 -96 67 -170q-35 63 -34 133v842h-33v-805z" />
<glyph unicode="V" horiz-adv-x="1118" d="M55 1133v59h379v-59h-92l346 -916q74 129 136.5 262t133.5 264q47 88 48 189q0 57 -17.5 106t-49.5 86t-79 57.5t-106 20.5q-37 0 -76 -11t-72 -33.5t-54.5 -55.5t-21.5 -74q4 0 6.5 1t6.5 1q39 0 67.5 -34.5t28.5 -69.5q0 -27 -15.5 -45.5t-43.5 -18.5q-29 0 -49.5 16.5 t-34 42t-19.5 55.5t-6 54q0 53 26.5 96t67.5 73t91.5 46.5t97.5 16.5q70 0 127 -25t98 -69t62.5 -103t21.5 -129q0 -117 -53 -219l-392 -760l-444 1176h-119zM227 1133l404 -1041l24 64l-374 977h-54z" />
<glyph unicode="W" horiz-adv-x="1724" d="M55 1133v59h443v-59h-131l272 -863l190 451q-41 86 -70.5 177t-29.5 189q0 39 8 80t27.5 75t50.5 56.5t78 22.5q35 0 60.5 -20.5t43 -50t26.5 -64.5t9 -64q0 -74 -28.5 -143.5t-57.5 -134.5l275 -594l245 883h-143v59h346v-59h-141l-336 -1176l-328 694l-299 -704 l-356 1186h-154zM270 1133l303 -1016l31 69l-299 947h-35zM786 1083q0 -80 24 -156.5t58 -148.5l314 -665l14 51q-80 172 -160 341t-157 343q-31 70 -56.5 142.5t-31.5 150.5q-2 -14 -3.5 -28.5t-1.5 -29.5zM848 1188q0 -27 6 -64t15.5 -74.5t21.5 -73.5t22 -61 q23 49 41.5 101.5t18.5 105.5q0 16 -5 41t-14.5 46.5t-26 37t-36.5 15.5q-29 0 -36 -26t-7 -48z" />
<glyph unicode="X" horiz-adv-x="1482" d="M55 254q0 43 14.5 84t40 74.5t63.5 54t85 20.5q39 0 74 -14t62.5 -39.5t44 -60.5t16.5 -74q0 -41 -23.5 -78t-71.5 -37q-37 0 -68.5 33t-31.5 70q0 27 17.5 44t44.5 17q23 0 41 -13t32 -30q-4 53 -44 89t-93 36q-35 0 -61.5 -15.5t-45 -41t-27.5 -56t-9 -61.5 q0 -41 14 -81t40 -70.5t62.5 -49t79.5 -18.5q150 0 230 123q70 104 137 209.5t135 210.5l-307 553h-146v59h441v-59h-121l227 -410l264 410h-118v59h311v-59h-123l-303 -467l334 -607h155v-59h-442v59h117l-256 461l-256 -393q-45 -68 -116 -109t-155 -41q-59 0 -107 21.5 t-83 59.5t-54.5 88.5t-19.5 107.5zM571 1133l598 -1074h37l-594 1074h-41z" />
<glyph unicode="Y" horiz-adv-x="1165" d="M55 -158q0 55 30 88t85 33q45 0 80 -29.5t35 -76.5q0 -25 -16.5 -43.5t-41.5 -18.5q-33 0 -62.5 31t-37.5 59q-12 -16 -12 -39q0 -31 16 -53t41 -35.5t53.5 -19.5t53.5 -6q47 0 93 21.5t89 54t81 70.5t68 69l-397 1186h-158v59h443v-59h-121l348 -1043q57 80 115.5 181.5 t105.5 212t78 223t31 213.5q0 57 -12.5 106t-39 85t-70.5 56.5t-106 20.5q-37 0 -69.5 -16.5t-57 -42t-38 -60.5t-13.5 -72q0 -59 37 -102l-45 -39q-51 61 -51 139q0 49 18.5 94.5t51 81t76.5 56t93 20.5q76 0 129.5 -24.5t87 -68.5t49 -104.5t15.5 -129.5q0 -63 -10 -126 t-27 -122q-35 -117 -87 -238t-120.5 -235.5t-149.5 -218t-173 -183.5q-53 -47 -120.5 -86t-139.5 -39q-39 0 -79 10.5t-73 31t-54.5 53t-21.5 75.5zM274 1133l381 -1133l27 33l-367 1100h-41z" />
<glyph unicode="Z" horiz-adv-x="1353" d="M55 150q0 51 21.5 86.5t57.5 58t80 32t87 9.5q35 0 72 -5t71 -14l447 816h-569v-226h-60v285h825l-505 -934q53 -29 102 -59.5t98 -61.5q59 -39 123 -74.5t137 -35.5q86 0 137.5 55t51.5 139q0 66 -27.5 125.5t-81.5 97.5l43 50q61 -47 97 -118t36 -149q0 -55 -18 -104 t-53 -84t-84 -55.5t-111 -20.5q-68 0 -131 29q-41 18 -80 43.5t-78 50.5q-47 31 -94 60.5t-98 54.5l-43 -80q-37 -66 -107.5 -110t-148.5 -44q-80 0 -138.5 50.5t-58.5 132.5zM115 145q0 -47 32.5 -79.5t79.5 -32.5q25 0 45.5 14t38 33.5t29.5 42t22 41.5l54 100 q-29 4 -57.5 8t-57.5 4q-31 0 -64.5 -6t-60 -20t-44 -40t-17.5 -65zM375 63q53 37 80 87l534 983h-31q-147 -268 -292.5 -533.5t-290.5 -536.5z" />
<glyph unicode="[" horiz-adv-x="374" d="M55 -512v1835h264v-57h-110v-1719h110v-59h-264zM115 -453h35v1719h-35v-1719z" />
<glyph unicode="\" horiz-adv-x="602" d="M55 1358h99l393 -1727h-96z" />
<glyph unicode="]" horiz-adv-x="374" d="M55 -453h111v1719h-111v57h264v-1835h-264v59zM225 -453h35v1719h-35v-1719z" />
<glyph unicode="^" horiz-adv-x="436" d="M55 1262l125 202h78l123 -202h-80l-82 135l-84 -135h-80z" />
<glyph unicode="_" horiz-adv-x="1024" d="M0 -16h1024v-76h-1024v76z" />
<glyph unicode="`" horiz-adv-x="370" d="M55 633l33 49l227 -152l-32 -49z" />
<glyph unicode="a" horiz-adv-x="659" d="M55 231q0 43 14.5 84t41 74t63.5 52.5t84 19.5q59 0 107 -35v23h139v-369q0 -10 10 -10q14 0 23.5 21.5t9.5 31.5h57q0 -51 -36 -86t-87 -35q-59 0 -94 51q-55 -51 -129 -51q-47 0 -84 19.5t-63.5 51t-41 73.5t-14.5 85zM113 231q0 -47 19.5 -87.5t60.5 -63.5 q-20 29 -29.5 65.5t-9.5 75.5q0 88 39 162q-41 -25 -60.5 -66t-19.5 -86zM207 233q0 -61 21.5 -111t64.5 -50q35 0 72 45v229q-35 49 -70 49q-23 0 -39 -14t-27.5 -36.5t-16.5 -51.5t-5 -60zM426 123q0 -31 23 -47v303h-23v-256z" />
<glyph unicode="b" horiz-adv-x="587" d="M55 236v813q0 59 42 101t102 42q57 0 98 -41l-41 -43q-20 25 -61 25v-693q23 10 46 15.5t52 5.5q47 0 91 -17.5t77 -48t52 -73t19 -91.5q0 -104 -69.5 -166.5t-171.5 -62.5q-104 0 -170 64.5t-66 169.5zM113 197q0 -29 22 -47v952q-23 -23 -22 -58v-847zM195 145 q0 -35 23.5 -59.5t57.5 -24.5q25 0 41.5 19.5t27.5 46.5t16.5 55.5t5.5 46.5t-5.5 48t-16.5 56.5t-28.5 46t-42.5 19.5q-20 0 -41.5 -8t-37.5 -18v-228zM389 383q20 -35 28.5 -80t8.5 -86q0 -35 -6 -71.5t-29 -65.5q39 23 58.5 64.5t19.5 86.5t-19.5 87t-60.5 65z" />
<glyph unicode="c" d="M55 233q0 49 19.5 90.5t53.5 72t78 48t91 17.5q23 0 51.5 -6t54 -18.5t43 -32t17.5 -48.5t-19.5 -47t-48.5 -18q-33 0 -63.5 26.5t-30.5 61.5q0 12 2 18q-41 -12 -60.5 -61t-19.5 -107q0 -63 24.5 -115.5t71.5 -52.5q35 0 56.5 20.5t40.5 45.5l49 -33q-33 -47 -72 -70.5 t-98 -23.5q-49 0 -92 18.5t-76 49t-52.5 73.5t-19.5 92zM123 231q0 -45 19.5 -86.5t58.5 -64.5q-37 61 -37 145q0 41 9 82t28 76q-39 -23 -58.5 -65t-19.5 -87z" />
<glyph unicode="d" horiz-adv-x="657" d="M55 231q0 41 15.5 82t43 74t64.5 53.5t82 20.5q53 0 100 -31v619q0 59 42 101t102 42q57 0 98 -41l-41 -43q-10 10 -24.5 17.5t-36.5 7.5v-1053q0 -10 6 -10q14 0 25.5 20.5t11.5 32.5h57q0 -51 -35 -86t-86 -35q-57 0 -94 47q-55 -49 -123 -49q-45 0 -83 20.5t-65.5 53 t-43 73.5t-15.5 84zM113 231q0 -45 19.5 -86.5t60.5 -64.5q-39 63 -39 145q0 84 39 158q-41 -23 -60.5 -65t-19.5 -87zM209 236q0 -25 4 -53.5t14.5 -53.5t25.5 -41t38 -16q29 0 69 37v243q-35 41 -65 41q-20 0 -35.5 -15.5t-27 -38t-17.5 -50t-6 -53.5zM422 123 q0 -31 22 -47v1030q-23 -23 -22 -57v-926z" />
<glyph unicode="e" horiz-adv-x="538" d="M55 227q0 49 18.5 92t51.5 74t77 49.5t95 18.5q59 0 107.5 -29t48.5 -96q0 -43 -22.5 -71.5t-55.5 -49t-71 -35t-71 -24.5q27 -94 89 -95q53 0 116 68l45 -37q-35 -43 -85 -67.5t-105 -24.5q-49 0 -93 18.5t-76 49t-50.5 71.5t-18.5 88zM121 231q0 -45 19.5 -86.5 t58.5 -64.5q-23 33 -30 70.5t-7 74.5q0 41 8 82t29 76q-39 -23 -58.5 -65t-19.5 -87zM223 215q20 6 50 15.5t56.5 23.5t45 34.5t18.5 49.5q0 33 -20.5 47t-48.5 14q-25 0 -44.5 -16t-31.5 -42t-18.5 -59.5t-6.5 -66.5z" />
<glyph unicode="f" horiz-adv-x="419" d="M55 401v60h68v588q0 59 42 101t101 42q57 0 99 -41l-41 -43q-10 10 -24.5 17.5t-37.5 7.5v-672h72v-60h-72v-862h-139v862h-68zM180 -393h23v1499q-23 -23 -23 -57v-1442z" />
<glyph unicode="g" horiz-adv-x="557" d="M55 231q0 41 15.5 83t42 75t63.5 53.5t82 20.5q29 0 55.5 -9.5t48.5 -25.5v33h140v-776q0 -59 -42 -101.5t-102 -42.5q-57 0 -98 41l41 43q10 -10 24.5 -17t36.5 -7v432q-49 -33 -102 -33q-45 0 -83 20.5t-64.5 53t-42 74.5t-15.5 83zM111 231q0 -45 19 -86.5t58 -64.5 q-20 29 -28 65.5t-8 75.5q0 90 36 162q-39 -23 -58 -65t-19 -87zM209 236q0 -61 22.5 -113.5t63.5 -52.5q20 0 37.5 13t29.5 28v239q-12 16 -29.5 29.5t-39.5 13.5q-41 0 -62.5 -49t-21.5 -108zM420 -395q23 27 22 57v737h-22v-794z" />
<glyph unicode="h" horiz-adv-x="645" d="M55 0v1049q0 59 42 101t104 42q57 0 98 -41l-43 -43q-10 10 -23.5 17.5t-35.5 7.5v-738q29 29 68.5 47.5t80.5 18.5q53 0 99.5 -34t46.5 -93v-260q4 -4 6 -4q10 0 20 21.5t12 31.5h60q0 -53 -35 -86t-88 -33t-86 33t-33 86v242q0 14 -11 22t-24 8q-20 0 -40.5 -12 t-38 -30.5t-27.5 -41t-10 -43.5v-268h-142zM115 59h22v1047q-23 -23 -22 -57v-990zM406 383q4 -8 4 -32.5v-59.5q0 -49 -1 -100.5t-1 -67.5q0 -31 22 -47v258q0 29 -24 49z" />
<glyph unicode="i" horiz-adv-x="372" d="M55 713q0 39 27 65.5t65 26.5q39 0 65 -27.5t26 -64.5t-27 -63.5t-64 -26.5t-64.5 25.5t-27.5 64.5zM78 123v326h139v-369q0 -10 8 -10q14 0 23.5 21.5t9.5 31.5h59q0 -49 -35.5 -85t-84.5 -36q-51 0 -85 36t-34 85zM125 690.5q10 -8.5 22 -8.5t22.5 9.5t10.5 21.5 t-10 22t-23 10q-32 0 -32 -30q0 -16 10 -24.5zM135 123q0 -29 23 -47v313h-23v-266z" />
<glyph unicode="j" horiz-adv-x="270" d="M-47 -418l43 43q24 -24 56 -24h3v860h142v-776q0 -57 -43 -100.5t-101 -43.5q-31 0 -54.5 10.5t-45.5 30.5zM33 713q0 37 25.5 64.5t64.5 27.5t65.5 -26.5t26.5 -65.5t-27.5 -64.5t-64.5 -25.5t-63.5 26.5t-26.5 63.5zM92 713q0 -12 9.5 -21.5t21.5 -9.5t22.5 8.5 t10.5 22.5q0 32 -31 32h-2q-14 0 -22.5 -10t-8.5 -22zM115 -373q23 23 22 58v716h-22v-774z" />
<glyph unicode="k" horiz-adv-x="634" d="M55 0v1049q0 59 42 101t102 42q57 0 98 -41l-41 -43q-10 10 -24.5 17.5t-36.5 7.5v-740q29 31 67.5 49.5t79.5 18.5q25 0 51.5 -7.5t48 -20.5t36 -34.5t14.5 -50.5q0 -25 -16.5 -45t-43.5 -20q-35 0 -62.5 29.5t-27.5 64.5v16q0 6 -4 8q-39 0 -69.5 -23.5t-51.5 -53.5 q78 -10 142.5 -55.5t97.5 -116.5q10 -18 13 -37t9 -37q4 -8 13 -8q12 0 20 21.5t8 31.5h60q0 -53 -35 -87t-88 -34q-72 0 -105 68q-27 53 -65.5 106t-91.5 82v-258h-140zM115 59h22v1047q-23 -23 -22 -57v-990zM328 219q47 -55 78 -125q4 -6 6 -11t8 -9q-16 92 -92 145z M401 379q0 -8 8.5 -22.5t18.5 -14.5q4 0 4 6q0 8 -8 22.5t-18 14.5q-4 0 -5 -6z" />
<glyph unicode="l" horiz-adv-x="354" d="M55 123v926q0 59 42 101t102 42q59 0 100 -41l-43 -43q-10 10 -23.5 17.5t-35.5 7.5v-1053q0 -10 8 -10q14 0 23.5 21.5t9.5 31.5h59q0 -49 -36 -85t-85 -36t-85 36t-36 85zM115 123q0 -31 22 -47v1030q-23 -23 -22 -57v-926z" />
<glyph unicode="m" horiz-adv-x="952" d="M55 340q0 51 35 86t88 35q35 0 61.5 -18.5t43.5 -49.5q27 29 64.5 48.5t78.5 19.5q59 0 100 -47q27 23 59.5 35t67.5 12q53 0 98.5 -34t45.5 -93v-256q0 -10 8 -10q14 0 23.5 21.5t9.5 31.5h59q0 -49 -36 -85t-85 -36t-85 36t-36 85v244q0 14 -11 22t-23 8 q-23 0 -38.5 -10t-31.5 -27q4 -16 4 -24v-334h-143v365q0 29 -21 28q-12 0 -28.5 -11t-32 -26.5t-25.5 -31t-10 -25.5v-299h-139v383q0 10 -13 10q-12 0 -21 -21.5t-9 -31.5h-58zM213 59h23v281q0 31 -23 47v-328zM469 387q2 -8 2 -22v-304h25v273q0 33 -27 53zM713 383 q4 -8 4 -32.5v-59.5q0 -51 -1 -102.5t-1 -67.5q0 -31 22 -47v260q0 29 -24 49z" />
<glyph unicode="n" horiz-adv-x="743" d="M55 340q0 53 36 87t89 34q35 0 63.5 -19.5t43.5 -54.5q29 33 70.5 53.5t86.5 20.5q53 0 99.5 -34t46.5 -93v-258q0 -6 8 -6q14 0 22.5 21.5t8.5 31.5h59q0 -49 -36 -85t-85 -36t-85 36t-36 85v242q0 14 -11 22t-23 8q-14 0 -34 -11t-38 -27.5t-30.5 -36t-12.5 -33.5v-287 l-141 2v381q0 10 -11 10q-12 0 -21 -21.5t-9 -31.5h-60zM215 59h23v263q0 18 -3.5 35.5t-19.5 29.5v-328zM504 383q4 -10 4 -33.5v-56.5q0 -47 -1 -97.5t-1 -72.5q0 -31 22 -47v258q0 29 -24 49z" />
<glyph unicode="o" d="M55 231q0 43 14.5 84t42 74t64.5 52.5t84 19.5q45 0 83 -19.5t65.5 -52.5t42 -74t14.5 -84t-14.5 -85t-42 -73.5t-65.5 -52t-83 -20.5q-47 0 -84 20.5t-64.5 52t-42 73.5t-14.5 85zM115 231q0 -45 19.5 -86.5t60.5 -64.5q-39 63 -39 145q0 84 39 158q-41 -23 -60.5 -65 t-19.5 -87zM217 233q0 -59 21.5 -108t66.5 -49q49 0 72.5 46t23.5 103q0 31 -6 59.5t-19.5 51t-32.5 37t-44 14.5q-41 0 -61.5 -47t-20.5 -107z" />
<glyph unicode="p" horiz-adv-x="548" d="M55 -459v1010h142v-117q47 27 94 27q45 0 83 -19.5t64.5 -52.5t41 -75t14.5 -85t-14.5 -84t-41 -72.5t-64.5 -51t-83 -19.5q-53 0 -94 27v-488h-142zM115 -399h22v891h-22v-891zM197 102q12 -12 27.5 -23t31.5 -11q41 0 62.5 50t21.5 111t-21.5 113.5t-62.5 52.5 q-16 0 -32.5 -13t-26.5 -24v-256zM367 86q35 25 52 64.5t17 80.5t-17.5 81t-51.5 65q35 -66 34 -146q1 -75 -34 -145z" />
<glyph unicode="q" horiz-adv-x="544" d="M55 231q0 43 14.5 84t41 74t63.5 52.5t84 19.5q53 0 102 -33v33h144v-860q14 0 30.5 7t26.5 17l43 -43q-41 -41 -98 -41q-61 0 -103.5 42t-42.5 102v348q-49 -33 -102 -33q-47 0 -84 20.5t-63.5 52t-41 73.5t-14.5 85zM113 231q0 -41 17 -80.5t52 -64.5 q-18 31 -26.5 67.5t-8.5 75.5t8.5 76t26.5 72q-35 -25 -52 -65t-17 -81zM207 236q0 -61 22.5 -113.5t63.5 -52.5q20 0 37.5 13t29.5 28v239q-12 16 -29.5 29.5t-37.5 13.5q-43 0 -64.5 -49t-21.5 -108zM420 -315q0 -35 22 -58v774h-22v-716z" />
<glyph unicode="r" horiz-adv-x="555" d="M55 340q0 51 35 86t86 35q43 0 76 -29q45 29 98 29q25 0 51.5 -7.5t48 -20.5t36 -34.5t14.5 -50.5q0 -27 -16.5 -46t-45.5 -19q-35 0 -61.5 30.5t-26.5 65.5q0 6 1 11t3 11h-14q-14 0 -27.5 -5t-25.5 -11q8 -18 8 -45v-340h-139v383q0 10 -11 10q-12 0 -21 -21.5 t-9 -31.5h-60zM215 59h23v281q0 31 -23 47v-328z" />
<glyph unicode="s" horiz-adv-x="468" d="M55 129q0 31 17.5 49.5t48.5 19.5q37 0 63.5 -33.5t26.5 -68.5q0 -18 -8 -33q10 -2 17 -3t18 -1q14 0 36.5 6.5t22.5 26.5q0 8 -15.5 23.5t-36 32t-39 31t-26.5 20.5q-16 12 -35.5 26.5t-37 31.5t-28.5 37.5t-11 43.5q0 31 15 53.5t38.5 37.5t52.5 23.5t57 8.5 q25 0 53.5 -5t53 -18.5t40 -35t15.5 -52.5q0 -25 -14 -46t-43 -21q-37 0 -63.5 29.5t-26.5 64.5q0 10 4 22q-4 0 -8 1t-9 1q-14 0 -33.5 -5t-19.5 -23q0 -16 37 -42t80 -57.5t80 -68.5t37 -76q0 -31 -16.5 -54.5t-42 -40t-57.5 -24.5t-62 -8q-29 0 -60 8t-58.5 23.5t-45 39 t-17.5 56.5zM127 350q0 -25 31.5 -53.5t71.5 -59t76 -61t46 -59.5q2 4 2 10q0 27 -35.5 57.5t-77.5 61t-78 58.5t-36 46z" />
<glyph unicode="t" horiz-adv-x="409" d="M55 401v60h58v344h141v-344h94v-60h-94v-321q0 -10 10 -10q14 4 22.5 22.5t8.5 30.5h59q0 -49 -35.5 -85t-85.5 -36q-49 0 -84.5 36t-35.5 85v278h-58zM172 123q0 -31 23 -47v669h-23v-622z" />
<glyph unicode="u" horiz-adv-x="636" d="M55 127v334h144v-365q0 -14 10 -21t24 -7q29 0 62 27.5t45 51.5v314h143v-395q39 10 39 55h60q0 -51 -36 -86t-87 -35q-35 0 -61.5 18.5t-43.5 49.5q-31 -29 -71.5 -48.5t-83.5 -19.5q-53 0 -98.5 35t-45.5 92zM113 127q-1 -29 28 -49q-2 6 -2 18v305h-26v-274zM399 121 q0 -14 6.5 -25.5t16.5 -21.5v327h-23v-280z" />
<glyph unicode="v" horiz-adv-x="499" d="M55 172v289h142v-352q0 -47 49 -48q72 0 105.5 50.5t33.5 115.5q0 51 -14 95q-12 -10 -35 -11q-37 0 -62.5 30t-25.5 65q0 27 17.5 46t43.5 19q35 0 60.5 -27.5t42 -66.5t24.5 -81t8 -69q0 -45 -13 -86t-39.5 -71.5t-63.5 -49t-86 -18.5q-86 0 -136.5 39t-50.5 131z M113 172q0 -23 5 -44.5t21 -37.5q-4 6 -4 36v71v62.5t1 60t1 50v31.5h-24v-229z" />
<glyph unicode="w" horiz-adv-x="790" d="M55 127v334h142v-365q0 -14 11 -21t25 -7q33 0 62 23.5t49 55.5v314h143v-352q0 -29 15.5 -38.5t40.5 -9.5q72 0 102.5 50.5t30.5 113.5q0 53 -14 97q-16 -12 -35 -13q-35 0 -60.5 31t-25.5 63q0 27 14 47.5t43 20.5q37 0 62.5 -27.5t42 -65.5t24.5 -80t8 -71 q0 -100 -54 -163.5t-159 -63.5q-47 0 -91 18.5t-66 61.5q-31 -35 -75 -57.5t-91 -22.5q-53 0 -98.5 34t-45.5 93zM113 127q0 -16 8 -27.5t18 -21.5q0 80 -1 160.5t-1 162.5h-24v-274zM403 172q0 -23 5.5 -44.5t21.5 -37.5v311h-27v-229z" />
<glyph unicode="x" horiz-adv-x="622" d="M55 340q0 51 36 85t85 34q45 0 70.5 -21.5t48.5 -56.5q25 35 65.5 57.5t83.5 22.5q35 0 70 -22.5t35 -61.5q0 -29 -18.5 -44.5t-47.5 -15.5q-35 0 -61.5 17.5t-36.5 50.5q-39 -20 -53 -57l164 -244q12 14 12 37h59q0 -49 -35.5 -85t-85.5 -36q-43 0 -69.5 22.5 t-46.5 57.5q-25 -35 -66 -56.5t-82 -21.5q-35 0 -69.5 20.5t-34.5 61.5q0 29 18.5 45t46.5 16q31 0 60.5 -18t36.5 -51q37 23 53 57l-166 244q-4 -8 -8 -17.5t-4 -19.5h-60zM182 401l213 -315q16 -23 45 -27l-213 318q-8 10 -20 16t-25 8z" />
<glyph unicode="y" horiz-adv-x="528" d="M55 127v334h144v-365q0 -14 11 -21t26 -7q25 0 53 22.5t43 42.5v328h141v-776q0 -59 -42 -101.5t-101 -42.5t-101 41l43 43q10 -10 23.5 -17t36.5 -7v448q-29 -23 -62.5 -36t-70.5 -13q-53 0 -98.5 35t-45.5 92zM115 127q-1 -29 26 -49q-2 6 -2 18v305h-24v-274z M391 -373q23 23 23 58v716h-23v-774z" />
<glyph unicode="z" horiz-adv-x="516" d="M55 336q10 47 35 85t82 38q45 0 87 -20.5t85 -20.5q16 0 26.5 10t20.5 23l45 -39l-194 -236q12 -6 27.5 -17.5t32.5 -22.5t33.5 -19t29.5 -8q33 0 38 34l58 -16q0 -6 -4 -18q-10 -47 -39 -77t-80 -30q-47 0 -89 21.5t-89 21.5q-18 0 -28.5 -9t-22.5 -24l-46 37 q49 63 99.5 123.5t101.5 122.5q-10 6 -25.5 16.5t-30.5 20.5t-29.5 17t-24.5 7q-16 0 -26.5 -10t-14.5 -24zM182 102q35 -4 67.5 -17.5t67.5 -21.5q-29 14 -55 35t-57 33zM213 393q23 -12 43 -27.5t45 -25.5l16 20q-29 4 -53 14.5t-51 18.5z" />
<glyph unicode="{" horiz-adv-x="419" d="M55 399l66 33v776q0 57 43 100.5t100 43.5q31 0 54.5 -10.5t46.5 -30.5l-43 -43q-25 25 -60 24v-839l-76 -54l78 -61v-840q33 0 58 25l43 -43q-23 -20 -46.5 -30.5t-54.5 -10.5q-57 0 -100 43t-43 100v776zM180 319v-737q0 -35 23 -57v774zM180 471l23 21v774 q-23 -23 -23 -58v-737z" />
<glyph unicode="|" horiz-adv-x="223" d="M55 -614v2039h113v-2039h-113z" />
<glyph unicode="}" horiz-adv-x="419" d="M55 -520l43 43q25 -25 60 -25v840l75 61l-75 54v839q-35 0 -60 -24l-43 43q23 20 46.5 30.5t54.5 10.5q57 0 100 -43t43 -101v-776l66 -33l-66 -41v-776q0 -57 -43 -100t-100 -43q-31 0 -54.5 10t-46.5 31zM217 299v-774q23 23 23 57v737zM217 492l23 -21v737 q0 35 -23 58v-774z" />
<glyph unicode="~" horiz-adv-x="788" d="M55 612q0 43 9.5 87t31 79t58 56.5t90.5 21.5q63 0 102 -29.5t69.5 -66.5t58.5 -66.5t67 -29.5q35 0 55 17t30.5 43t13.5 55.5t3 54.5h90q-4 -45 -12 -90.5t-29.5 -82t-56.5 -59t-90 -22.5q-61 0 -100 29.5t-70 66.5t-59.5 66.5t-65.5 29.5q-35 0 -55.5 -15.5t-31.5 -39 t-14.5 -51t-5.5 -54.5h-88z" />
<glyph unicode="&#xa1;" horiz-adv-x="354" d="M55 -449l43 43q10 -10 23.5 -17t36.5 -7v844q0 10 -8 10q-6 0 -10.5 -5t-8.5 -9l-29 55q33 27 76 27q49 0 85 -34t36 -85v-719q0 -59 -41 -101t-100 -42q-29 0 -55.5 10t-47.5 30zM117 627q0 37 26.5 63.5t63.5 26.5t64.5 -25.5t27.5 -64.5t-26.5 -65.5t-65.5 -26.5 t-64.5 27.5t-25.5 64.5zM176 627q0 -12 8.5 -22.5t22.5 -10.5q33 0 33 33q0 14 -10.5 22t-22.5 8t-21.5 -9t-9.5 -21zM217 -403q23 23 23 57v719q0 29 -23 47v-823z" />
<glyph unicode="&#xa2;" horiz-adv-x="518" d="M55 629q0 84 54.5 144.5t132.5 78.5v227h57v-221q23 -2 50.5 -7t52 -17.5t42 -31t17.5 -48.5q0 -29 -18.5 -47.5t-47.5 -18.5q-35 0 -65.5 28.5t-30.5 63.5q0 10 2 15q-23 -6 -38 -25.5t-24.5 -44.5t-12.5 -50.5t-3 -45.5q0 -66 29 -117t72 -51q45 0 92 63l47 -32 q-31 -47 -69 -70t-95 -25v-209h-57v215q-80 16 -133.5 80t-53.5 146zM123 629q0 -47 18.5 -88t59.5 -66q-20 33 -28.5 72t-8.5 76q0 41 8 81.5t29 75.5q-41 -25 -59.5 -65.5t-18.5 -85.5z" />
<glyph unicode="&#xa3;" horiz-adv-x="946" d="M55 100q0 55 43 87t97 32q27 0 50 -5t50 -13q2 23 3 46t1 46q0 57 -2 113.5t-2 113.5h-129v60h127q-2 16 -2 31.5v31.5q0 66 8 145.5t34.5 148.5t79 116t142.5 47q43 0 81 -15.5t67.5 -42t46 -64.5t16.5 -81q0 -27 -10 -61l-58 16q4 10 6.5 22.5t2.5 22.5q0 23 -8.5 46.5 t-24 44t-36 32.5t-44.5 12q-47 0 -74.5 -27.5t-43 -69.5t-20.5 -90t-5 -89v-176h196v-60h-194v-153q0 -51 -4.5 -104.5t-20.5 -100.5q20 -8 54 -19.5t69 -22.5t67.5 -19.5t53.5 -8.5q25 0 49 7t45.5 27.5t40 56.5t31.5 91l53 -12q-12 -47 -18.5 -96t-24 -89t-53 -65.5 t-109.5 -25.5q-33 0 -70.5 11t-77.5 28.5t-77 36t-68 32.5q-33 -55 -86 -87t-119 -32q-51 0 -92 36t-41 89zM115 98q0 -29 23.5 -47t49.5 -18q47 0 68 33.5t31 74.5q-25 6 -46.5 13.5t-45.5 7.5q-29 0 -54.5 -15.5t-25.5 -48.5zM354 184l19 -4q10 37 13 81t3 104v335 q0 66 6 143t33 138q-16 -25 -29.5 -56.5t-21.5 -66.5t-12.5 -69.5t-4.5 -63.5v-424q0 -59 -6 -117z" />
<glyph unicode="&#xa4;" horiz-adv-x="1054" d="M55 426l25 59h72v41h-93l25 60h74q14 92 60 170t113.5 135t152.5 89t178 32q94 0 181 -33t156 -94l-24 -58q-63 59 -145 92t-168 33q-76 0 -136.5 -31.5t-106.5 -83t-75 -118t-39 -133.5h567l-24 -60h-547q-2 -6 -2 -20t2 -21h530l-26 -59h-500q10 -68 39 -134.5 t75 -117.5t106.5 -83t136.5 -32q135 0 247 72l31 -49q-127 -82 -278 -82q-94 0 -178.5 31.5t-152 88t-113.5 135.5t-60 171h-103zM211 506q0 -78 26.5 -151t75.5 -132q-37 66 -54 137.5t-17 145.5t17 145.5t54 136.5q-49 -59 -75.5 -131.5t-26.5 -150.5z" />
<glyph unicode="&#xa5;" horiz-adv-x="1114" d="M55 1020v59h441v-59h-121l225 -410l266 410h-118v59h311v-59h-123l-279 -430h191v-60h-211v-41h211v-59h-211v-371h141v-59h-442v59h149v371h-196v59h196v19l-12 22h-184v60h151l-239 430h-146zM266 1020l277 -498v-463h35v471l-271 490h-41z" />
<glyph unicode="&#xa6;" horiz-adv-x="206" d="M55 -410v1004h97v-1004h-97zM55 737v901h97v-901h-97z" />
<glyph unicode="&#xa7;" horiz-adv-x="2295" d="M55 10v193q0 35 24.5 61.5t61.5 26.5h301v-74h-301q-14 0 -14 -14v-17h315v-71h-315v-105h-72zM55 1026v152h238v-512h-152v360h-86zM264 338v192q0 35 25.5 60.5t62.5 25.5h299v-71h-299q-16 0 -16 -15v-16h315v-72h-315v-104h-72zM395 666v237q0 57 21.5 107.5 t59.5 87.5t88 58.5t108 21.5h424v-238q0 -57 -21.5 -107.5t-58.5 -87t-87 -58t-108 -21.5h-426zM483 10v127q0 63 45 107.5t109 44.5h235v-127q0 -63 -44 -107.5t-107 -44.5h-238zM547 815h274q51 0 87 36t36 89v86h-272q-53 0 -89 -36t-36 -87v-88zM557 84h164 q35 0 56.5 21.5t21.5 56.5v53h-162q-33 0 -56.5 -21.5t-23.5 -56.5v-53zM721 338v278h409v-96q0 -43 -28.5 -74.5t-71.5 -35.5l66 -72h-97l-67 72h-105v71h193q37 0 37 39v23h-264v-205h-72zM938 10v279h39q53 0 101 -17.5t89 -48.5q57 -45 93 -108v176h71v-281h-106 q-20 94 -101 154q-53 43 -114 49v-203h-72zM1190 426q0 29 18 51q-18 20 -18 53q0 35 26.5 60.5t63.5 25.5h301v-71h-301q-16 0 -16 -15q0 -16 16 -16h301v-72h-301q-16 0 -16 -16t16 -16h301v-72h-301q-37 0 -63.5 25.5t-26.5 62.5zM1200 666v237q0 57 21.5 107.5 t58.5 87.5t87 58.5t108 21.5h423v-238q0 -57 -21.5 -107.5t-58 -87t-87 -58t-107.5 -21.5h-424zM1350 815h274q51 0 88 36t37 89v86h-274q-53 0 -89 -36t-36 -87v-88zM1395 217v74h401v-74h-207v-133h90v-74h-159v207h-125zM1642 426q0 29 19 51q-18 20 -19 53q0 35 27 60.5 t62 25.5h301v-71h-301q-16 0 -17 -15q0 -16 17 -16h301v-72h-301q-16 0 -17 -16q0 -16 17 -16h301v-72h-301q-35 0 -62 25.5t-27 62.5zM1847 10v74h254q37 0 56 31h-310v35q0 59 40 100t100 41h254v-74h-254q-39 0 -58 -31h312v-36q0 -57 -40 -98.5t-100 -41.5h-254z M2003 1026v152h238v-512h-152v360h-86z" />
<glyph unicode="&#xa8;" horiz-adv-x="374" d="M55 555q0 23 15.5 38t38.5 15t39 -15t16 -38t-16.5 -38t-38.5 -15q-23 0 -38.5 15t-15.5 38zM211 555q0 23 15.5 38t37.5 15q23 0 39 -15t16 -38t-16 -38t-39 -15t-38 15t-15 38z" />
<glyph unicode="&#xa9;" horiz-adv-x="1230" d="M55 592q0 115 44 217t121 178t178.5 120t215.5 44q115 0 216.5 -45t178 -121t122 -178t45.5 -215q0 -115 -45.5 -216.5t-121 -177t-178 -119.5t-215.5 -44q-117 0 -218 44t-178 118.5t-121 176t-44 218.5zM119 592q0 -102 39 -192.5t106.5 -158t157.5 -106.5t192 -39 t192.5 39t157 106.5t105.5 158t39 192.5q0 100 -39 190t-106.5 158t-156.5 107.5t-190 39.5q-102 0 -193 -38.5t-158.5 -106.5t-106.5 -158t-39 -192zM311 582q0 63 19.5 123.5t57.5 107.5t95.5 76t132.5 29q80 0 154 -44.5t121 -142.5l-96 -26q-35 61 -85.5 89.5 t-99.5 28.5t-85 -20.5t-59.5 -54t-35.5 -76.5t-12 -88t12 -88t35.5 -77t59.5 -54.5t85 -20.5q59 0 112.5 37t82.5 113l96 -31q-39 -111 -117.5 -161t-167.5 -50q-78 0 -134 28.5t-95 74.5t-57.5 105.5t-18.5 121.5z" />
<glyph unicode="&#xaa;" horiz-adv-x="661" d="M55 868q0 43 15.5 84t42 74t64.5 52.5t83 19.5q59 0 107 -35v20h139v-366q0 -10 10 -10q14 0 23.5 20.5t9.5 30.5h57q0 -51 -35.5 -85t-85.5 -34q-61 0 -96 51q-55 -51 -129 -51q-47 0 -84 19.5t-64.5 52t-42 73.5t-14.5 84zM115 866q0 -45 19.5 -86.5t60.5 -64.5 q-23 29 -31 64.5t-8 74.5q0 43 10 87t29 79q-41 -25 -60.5 -67t-19.5 -87zM211 864q0 -59 21.5 -108t62.5 -49q35 0 72 45v231q-18 27 -35 37t-33 10q-43 0 -65.5 -52t-22.5 -114zM428 760q0 -31 23 -49v303h-23v-254z" />
<glyph unicode="&#xab;" horiz-adv-x="624" d="M55 528l248 250v-237l-10 -13l10 -10v-237zM139 528l107 -106v72l-37 34l37 37v70zM321 528l248 250v-237l-10 -13l10 -10v-237zM405 528l107 -106v72l-37 34l37 37v70z" />
<glyph unicode="&#xac;" horiz-adv-x="847" d="M55 631v90h738v-209h-91v119h-647z" />
<glyph unicode="&#xad;" horiz-adv-x="389" d="M55 424v176h279v-176h-279zM115 483h159v58h-159v-58z" />
<glyph unicode="&#xae;" horiz-adv-x="512" d="M55 981q0 41 16.5 77t44 63.5t63.5 44t77 16.5q39 0 76 -16.5t64.5 -44t44 -64.5t16.5 -76q0 -41 -16.5 -78t-44 -64.5t-63.5 -43t-77 -15.5q-84 0 -142.5 58.5t-58.5 142.5zM84 981q0 -72 50 -121t122 -49t122 49t50 121q0 70 -51 121t-121 51q-72 0 -122 -50t-50 -122z M180 874v224h78q29 0 59.5 -15.5t30.5 -50.5q0 -45 -43 -57l49 -101h-43l-47 95h-43v-95h-41zM221 997h43q16 0 28.5 9.5t12.5 25.5q0 18 -18.5 27.5t-34.5 9.5h-31v-72z" />
<glyph unicode="&#xaf;" horiz-adv-x="536" d="M55 496v51h426v-51h-426z" />
<glyph unicode="&#xb0;" horiz-adv-x="321" d="M55 1065q0 45 32 74.5t75 29.5t73.5 -30.5t30.5 -73.5t-30.5 -73.5t-73.5 -30.5t-75 29.5t-32 74.5zM123 1065q0 -16 10 -27.5t27 -11.5q16 0 27.5 11.5t11.5 27.5t-11.5 26.5t-27.5 10.5t-26.5 -10.5t-10.5 -26.5z" />
<glyph unicode="&#xb1;" horiz-adv-x="794" d="M55 0v92h684v-92h-684zM55 631v90h295v299h92v-299h297v-90h-297v-297h-92v297h-295z" />
<glyph unicode="&#xb2;" horiz-adv-x="376" d="M55 780q41 72 88 139.5t86 139.5q18 27 19 59q0 29 -17.5 51.5t-46.5 22.5q-43 0 -67.5 -39t-24.5 -76l-33 2q2 55 38 101.5t96 46.5q59 0 94 -39t35 -96q0 -55 -29 -97l-117 -182h127v-33h-248zM115 813h22q33 51 64.5 100.5t62.5 100.5q10 16 17.5 35.5t7.5 42.5 q0 27 -13 49q4 -16 5 -25q0 -41 -23 -74z" />
<glyph unicode="&#xb3;" horiz-adv-x="395" d="M55 854l29 18q12 -20 36.5 -36.5t47.5 -16.5q18 0 34.5 11.5t28 27.5t17.5 35.5t6 36.5q0 41 -26.5 76.5t-71.5 35.5h-37l119 154h-142v33h207l-117 -154q29 0 56.5 -11t49 -30.5t35 -46t13.5 -57.5q0 -61 -47 -103.5t-107 -42.5q-41 0 -74.5 18.5t-56.5 51.5zM256 838 q23 16 37 39.5t14 52.5t-14 53.5t-37 40.5q29 -41 29 -92q0 -53 -29 -94z" />
<glyph unicode="&#xb4;" horiz-adv-x="370" d="M55 530l228 152l32 -49l-227 -152z" />
<glyph unicode="&#xb6;" horiz-adv-x="854" d="M55 870q0 82 32 156t85 127t126 85t155 32q109 0 200.5 -53.5t145.5 -147.5l-54 -31q-35 61 -90 103v-1700h-61v1737q-27 14 -62 20v-1757h-61v1032h-25q-82 0 -152.5 32t-123.5 86t-84 125.5t-31 153.5z" />
<glyph unicode="&#xb7;" horiz-adv-x="282" d="M55 688q0 35 25.5 60.5t60.5 25.5t60.5 -25.5t25.5 -60.5t-25.5 -60.5t-60.5 -25.5t-60.5 25.5t-25.5 60.5z" />
<glyph unicode="&#xb8;" horiz-adv-x="436" d="M55 -131q0 37 24.5 61.5t61.5 24.5q29 0 50.5 -19.5t21.5 -50.5q0 -29 -19.5 -50t-48.5 -21h-8q29 -29 74 -29q41 0 76 26.5t35 71.5q0 53 -43 88t-95 35v57q37 0 73 -13t63.5 -36.5t44 -57.5t16.5 -73q0 -35 -14.5 -63.5t-38 -50t-54 -32.5t-63.5 -11q-31 0 -58.5 11 t-49 29.5t-35 45t-13.5 57.5z" />
<glyph unicode="&#xb9;" horiz-adv-x="352" d="M55 780v33h82v379h-55v33h139v-412h76v-33h-242zM170 813h18v379h-18v-379z" />
<glyph unicode="&#xba;" d="M55 866q0 43 14.5 85t42 74t64.5 52.5t84 20.5q45 0 83 -20.5t65.5 -52.5t42 -74t14.5 -85t-14.5 -84t-42 -73.5t-65.5 -52t-83 -19.5q-47 0 -84 19.5t-64.5 52t-42 73.5t-14.5 84zM115 868q0 -47 19.5 -88.5t60.5 -64.5q-20 33 -28.5 71.5t-8.5 77.5t8 80t29 76 q-41 -23 -60.5 -65t-19.5 -87zM217 866q0 -78 26.5 -114.5t61.5 -36.5q37 0 69 37.5t32 109.5t-34 115t-71 43q-33 0 -58.5 -37t-25.5 -117z" />
<glyph unicode="&#xbb;" horiz-adv-x="624" d="M55 281v237l11 10l-11 13v237l248 -250zM113 422l106 106l-106 107v-70l37 -37l-37 -34v-72zM322 281v237l10 10l-10 13v237l247 -250zM379 422l106 106l-106 107v-70l37 -37l-37 -34v-72z" />
<glyph unicode="&#xbc;" horiz-adv-x="776" d="M55 645v41h99v461h-66v41h168v-502h92v-41h-293zM94 0l570 1190h57l-569 -1190h-58zM195 686h20v461h-20v-461zM236 0l190 449h111l-175 -410h154v326h98v-326h72v-39h-72v-172h-98v172h-280zM295 39h24l156 371h-22zM553 0v-133h25v133h-25zM553 39h25v287h-25v-287z " />
<glyph unicode="&#xbd;" horiz-adv-x="800" d="M55 649v39h101v463h-66v39h166v-502h94v-39h-295zM111 2l569 1190h57l-569 -1190h-57zM195 688h22v463h-22v-463zM424 0l211 340q23 35 22 72q0 33 -21.5 61.5t-55.5 28.5q-25 0 -45.5 -13.5t-35 -34t-22.5 -45t-8 -47.5h-41q0 33 12.5 66t34 58.5t50 41t65.5 15.5 q72 0 113.5 -47t41.5 -117q0 -66 -34 -117l-142 -221h154v-41h-299zM494 41h28l156 242q29 45 29 96q0 31 -13 61q2 -10 2 -32q0 -49 -26 -89z" />
<glyph unicode="&#xbe;" horiz-adv-x="768" d="M55 733l33 21q16 -23 45 -43.5t57 -20.5q25 0 43.5 13.5t33 34t21.5 44t7 43.5q0 51 -33 94.5t-86 43.5h-45l143 188h-172v41h254l-143 -188q37 0 70.5 -13.5t59.5 -37t41 -56.5t15 -72q0 -37 -15 -69.5t-41 -56t-59.5 -37t-70.5 -13.5q-47 0 -90 21.5t-68 62.5zM86 0 l569 1190h58l-570 -1190h-57zM231 0l193 451h108l-172 -412h152v326h100v-326h70v-39h-70v-172h-100v172h-281zM293 39h22l158 371h-24zM297 713q29 20 46 50t17 64q0 35 -17 65t-46 48q37 -49 37 -113q0 -63 -37 -114zM551 0v-133h22v133h-22zM551 39h22v287h-22v-287z" />
<glyph unicode="&#xbf;" horiz-adv-x="772" d="M55 -121q0 43 9.5 87t29 84t49 73t70.5 51q29 12 62.5 30.5t62.5 41t48.5 52.5t19.5 67v108h59v-108q0 -80 -41 -142.5t-100 -109.5q-57 -45 -83 -103.5t-26 -130.5q0 -53 13.5 -110.5t47.5 -100.5q27 -33 69 -54.5t83 -21.5t81 17.5t71.5 47.5t51 67.5t23.5 78.5 q-35 0 -65.5 29t-30.5 64q0 25 17.5 42t41.5 17q35 0 63 -27.5t32 -62.5q2 -10 3 -22.5t1 -22.5q0 -66 -29 -119t-75 -91t-105 -58.5t-121 -20.5q-72 0 -132 28.5t-104.5 77t-70 111t-25.5 131.5zM115 -117q0 -66 25.5 -125t72.5 -102q-29 47 -43 102.5t-14 110.5 q0 70 22.5 137.5t71.5 118.5q-72 -33 -103.5 -100.5t-31.5 -141.5zM334 647q0 39 27.5 64.5t64.5 25.5t63.5 -26.5t26.5 -63.5t-25.5 -64.5t-64.5 -27.5t-65.5 26.5t-26.5 65.5zM393 647q0 -33 33 -33q14 0 22.5 10.5t8.5 22.5t-9.5 21.5t-21.5 9.5t-22.5 -8t-10.5 -23z" />
<glyph unicode="&#xc0;" horiz-adv-x="1263" d="M-246 -203q0 70 48 123t120 53q23 0 47 -8t44.5 -23.5t34 -37t13.5 -47.5q0 -25 -18.5 -43.5t-42.5 -18.5q-18 0 -36 10.5t-30 25.5t-20.5 33.5t-8.5 37.5v10q-43 -8 -67.5 -40t-24.5 -75q0 -39 17.5 -69.5t45 -51t62.5 -31t70 -10.5q66 0 117 25t92 66t71.5 93t55.5 105 q-57 29 -104.5 72t-82.5 96t-54 113.5t-19 126.5q0 88 33.5 162.5t91 130t134 86t162.5 30.5q23 0 42.5 -2t41.5 -6q27 76 64 157t89 148.5t123 110.5t165 43h157v-59h-120v-1074h141v-59h-440v59h149v179q0 147 -71.5 261.5t-217.5 162.5q-57 -176 -99 -355.5t-110 -351.5 q68 -25 140 -25v-57q-88 0 -162 27q-29 -63 -63.5 -122t-82 -104t-107.5 -71.5t-136 -26.5q-47 0 -93 15.5t-82 44t-57.5 69.5t-21.5 92zM143 332q0 -111 62.5 -206t160.5 -146q66 170 108 346t97 350q-35 6 -66 6q-74 0 -140 -26.5t-115.5 -72.5t-78 -110.5t-28.5 -140.5z M647 717q86 -29 154.5 -84t113.5 -133v608q-53 -25 -95 -70t-75 -98t-56.5 -112.5t-41.5 -110.5zM790 1364l33 49l227 -152l-32 -49zM974 59h35v1071q-10 0 -17 -1t-18 -3v-1067z" />
<glyph unicode="&#xc1;" horiz-adv-x="1263" d="M-246 -203q0 70 48 123t120 53q23 0 47 -8t44.5 -23.5t34 -37t13.5 -47.5q0 -25 -18.5 -43.5t-42.5 -18.5q-18 0 -36 10.5t-30 25.5t-20.5 33.5t-8.5 37.5v10q-43 -8 -67.5 -40t-24.5 -75q0 -39 17.5 -69.5t45 -51t62.5 -31t70 -10.5q66 0 117 25t92 66t71.5 93t55.5 105 q-57 29 -104.5 72t-82.5 96t-54 113.5t-19 126.5q0 88 33.5 162.5t91 130t134 86t162.5 30.5q23 0 42.5 -2t41.5 -6q27 76 64 157t89 148.5t123 110.5t165 43h157v-59h-120v-1074h141v-59h-440v59h149v179q0 147 -71.5 261.5t-217.5 162.5q-57 -176 -99 -355.5t-110 -351.5 q68 -25 140 -25v-57q-88 0 -162 27q-29 -63 -63.5 -122t-82 -104t-107.5 -71.5t-136 -26.5q-47 0 -93 15.5t-82 44t-57.5 69.5t-21.5 92zM143 332q0 -111 62.5 -206t160.5 -146q66 170 108 346t97 350q-35 6 -66 6q-74 0 -140 -26.5t-115.5 -72.5t-78 -110.5t-28.5 -140.5z M647 717q86 -29 154.5 -84t113.5 -133v608q-53 -25 -95 -70t-75 -98t-56.5 -112.5t-41.5 -110.5zM870 1261l228 152l32 -49l-227 -152zM974 59h35v1071q-10 0 -17 -1t-18 -3v-1067z" />
<glyph unicode="&#xc2;" horiz-adv-x="1263" d="M-246 -203q0 70 48 123t120 53q23 0 47 -8t44.5 -23.5t34 -37t13.5 -47.5q0 -25 -18.5 -43.5t-42.5 -18.5q-18 0 -36 10.5t-30 25.5t-20.5 33.5t-8.5 37.5v10q-43 -8 -67.5 -40t-24.5 -75q0 -39 17.5 -69.5t45 -51t62.5 -31t70 -10.5q66 0 117 25t92 66t71.5 93t55.5 105 q-57 29 -104.5 72t-82.5 96t-54 113.5t-19 126.5q0 88 33.5 162.5t91 130t134 86t162.5 30.5q23 0 42.5 -2t41.5 -6q27 76 64 157t89 148.5t123 110.5t165 43h157v-59h-120v-1074h141v-59h-440v59h149v179q0 147 -71.5 261.5t-217.5 162.5q-57 -176 -99 -355.5t-110 -351.5 q68 -25 140 -25v-57q-88 0 -162 27q-29 -63 -63.5 -122t-82 -104t-107.5 -71.5t-136 -26.5q-47 0 -93 15.5t-82 44t-57.5 69.5t-21.5 92zM143 332q0 -111 62.5 -206t160.5 -146q66 170 108 346t97 350q-35 6 -66 6q-74 0 -140 -26.5t-115.5 -72.5t-78 -110.5t-28.5 -140.5z M647 717q86 -29 154.5 -84t113.5 -133v608q-53 -25 -95 -70t-75 -98t-56.5 -112.5t-41.5 -110.5zM741 1223l191 163l188 -163h-88l-100 86l-101 -86h-90zM974 59h35v1071q-10 0 -17 -1t-18 -3v-1067z" />
<glyph unicode="&#xc3;" horiz-adv-x="1263" d="M-246 -203q0 70 48 123t120 53q23 0 47 -8t44.5 -23.5t34 -37t13.5 -47.5q0 -25 -18.5 -43.5t-42.5 -18.5q-18 0 -36 10.5t-30 25.5t-20.5 33.5t-8.5 37.5v10q-43 -8 -67.5 -40t-24.5 -75q0 -39 17.5 -69.5t45 -51t62.5 -31t70 -10.5q66 0 117 25t92 66t71.5 93t55.5 105 q-57 29 -104.5 72t-82.5 96t-54 113.5t-19 126.5q0 88 33.5 162.5t91 130t134 86t162.5 30.5q23 0 42.5 -2t41.5 -6q27 76 64 157t89 148.5t123 110.5t165 43h157v-59h-120v-1074h141v-59h-440v59h149v179q0 147 -71.5 261.5t-217.5 162.5q-57 -176 -99 -355.5t-110 -351.5 q68 -25 140 -25v-57q-88 0 -162 27q-29 -63 -63.5 -122t-82 -104t-107.5 -71.5t-136 -26.5q-47 0 -93 15.5t-82 44t-57.5 69.5t-21.5 92zM143 332q0 -111 62.5 -206t160.5 -146q66 170 108 346t97 350q-35 6 -66 6q-74 0 -140 -26.5t-115.5 -72.5t-78 -110.5t-28.5 -140.5z M647 717q86 -29 154.5 -84t113.5 -133v608q-53 -25 -95 -70t-75 -98t-56.5 -112.5t-41.5 -110.5zM721 1259q14 35 36 61.5t65 26.5q29 0 55.5 -11t52 -24.5t49 -24.5t45.5 -11q25 0 33 16.5t17 34.5l55 -21q-14 -37 -34.5 -63.5t-66.5 -26.5q-29 0 -57.5 11.5t-54 25 t-50 24.5t-44.5 11q-23 0 -31 -16.5t-14 -34.5zM974 59h35v1071q-10 0 -17 -1t-18 -3v-1067z" />
<glyph unicode="&#xc4;" horiz-adv-x="1263" d="M-246 -203q0 70 48 123t120 53q23 0 47 -8t44.5 -23.5t34 -37t13.5 -47.5q0 -25 -18.5 -43.5t-42.5 -18.5q-18 0 -36 10.5t-30 25.5t-20.5 33.5t-8.5 37.5v10q-43 -8 -67.5 -40t-24.5 -75q0 -39 17.5 -69.5t45 -51t62.5 -31t70 -10.5q66 0 117 25t92 66t71.5 93t55.5 105 q-57 29 -104.5 72t-82.5 96t-54 113.5t-19 126.5q0 88 33.5 162.5t91 130t134 86t162.5 30.5q23 0 42.5 -2t41.5 -6q27 76 64 157t89 148.5t123 110.5t165 43h157v-59h-120v-1074h141v-59h-440v59h149v179q0 147 -71.5 261.5t-217.5 162.5q-57 -176 -99 -355.5t-110 -351.5 q68 -25 140 -25v-57q-88 0 -162 27q-29 -63 -63.5 -122t-82 -104t-107.5 -71.5t-136 -26.5q-47 0 -93 15.5t-82 44t-57.5 69.5t-21.5 92zM143 332q0 -111 62.5 -206t160.5 -146q66 170 108 346t97 350q-35 6 -66 6q-74 0 -140 -26.5t-115.5 -72.5t-78 -110.5t-28.5 -140.5z M647 717q86 -29 154.5 -84t113.5 -133v608q-53 -25 -95 -70t-75 -98t-56.5 -112.5t-41.5 -110.5zM807 1286q0 23 15.5 38t38.5 15t39 -15t16 -38t-16.5 -38t-38.5 -15q-23 0 -38.5 15t-15.5 38zM963 1286q0 23 15.5 38t37.5 15q23 0 39 -15t16 -38t-16 -38t-39 -15t-38 15 t-15 38zM974 59h35v1071q-10 0 -17 -1t-18 -3v-1067z" />
<glyph unicode="&#xc5;" horiz-adv-x="1263" d="M-246 -203q0 70 48 123t120 53q23 0 47 -8t44.5 -23.5t34 -37t13.5 -47.5q0 -25 -18.5 -43.5t-42.5 -18.5q-18 0 -36 10.5t-30 25.5t-20.5 33.5t-8.5 37.5v10q-43 -8 -67.5 -40t-24.5 -75q0 -39 17.5 -69.5t45 -51t62.5 -31t70 -10.5q66 0 117 25t92 66t71.5 93t55.5 105 q-57 29 -104.5 72t-82.5 96t-54 113.5t-19 126.5q0 88 33.5 162.5t91 130t134 86t162.5 30.5q23 0 42.5 -2t41.5 -6q27 76 64 157t89 148.5t123 110.5t165 43h157v-59h-120v-1074h141v-59h-440v59h149v179q0 147 -71.5 261.5t-217.5 162.5q-57 -176 -99 -355.5t-110 -351.5 q68 -25 140 -25v-57q-88 0 -162 27q-29 -63 -63.5 -122t-82 -104t-107.5 -71.5t-136 -26.5q-47 0 -93 15.5t-82 44t-57.5 69.5t-21.5 92zM143 332q0 -111 62.5 -206t160.5 -146q66 170 108 346t97 350q-35 6 -66 6q-74 0 -140 -26.5t-115.5 -72.5t-78 -110.5t-28.5 -140.5z M647 717q86 -29 154.5 -84t113.5 -133v608q-53 -25 -95 -70t-75 -98t-56.5 -112.5t-41.5 -110.5zM927 1296q0 31 21.5 53.5t52.5 22.5t53.5 -22.5t22.5 -53.5t-22.5 -52t-53.5 -21t-52.5 21.5t-21.5 51.5zM966 1296q0 -16 10.5 -25.5t24.5 -9.5q16 0 25.5 10.5t9.5 24.5 q0 16 -10.5 25.5t-24.5 9.5t-24.5 -10t-10.5 -25zM974 59h35v1071q-10 0 -17 -1t-18 -3v-1067z" />
<glyph unicode="&#xc6;" horiz-adv-x="1890" d="M55 268q0 41 15.5 82t42 74t64.5 53.5t81 20.5q27 0 56.5 -12.5t54 -33t40 -49t15.5 -59.5q0 -29 -19.5 -43t-44.5 -14q-43 0 -67.5 30.5t-24.5 71.5q0 27 19 45q-10 4 -31 4q-31 0 -57.5 -17.5t-45 -43t-28.5 -57t-10 -58.5q0 -47 22.5 -87t57 -67.5t79.5 -43t88 -15.5 q37 0 74 13.5t69 35t57.5 51t41.5 62.5q47 100 84 213t77 221.5t90 207.5t123 175t176 120t249 44q55 0 110.5 -14.5t99.5 -43t72.5 -71.5t28.5 -102q0 -27 -13 -44.5t-42 -17.5q-41 0 -69.5 31t-28.5 71q0 25 15 42.5t40 19.5q-29 35 -72 52.5t-88 17.5q-86 0 -134 -57.5 t-48 -139.5q0 -47 17.5 -89t48 -74t71.5 -50t88 -18h125v-60h-78q-74 0 -133 -15.5t-113 -70.5q-43 -45 -63 -104.5t-20 -118.5q0 -53 15 -103.5t46 -89.5t75 -61.5t103 -22.5q115 0 204 58.5t118 173.5l57 -15q-16 -66 -52 -118t-87 -86.5t-112.5 -53t-127.5 -18.5 q-74 0 -145.5 24.5t-128 70.5t-91 110.5t-34.5 144.5q0 88 44 163t116 122h-390q-41 -113 -78.5 -226.5t-91.5 -222.5q-43 -88 -122.5 -141t-180.5 -53q-57 0 -110.5 21.5t-95.5 58.5t-67.5 87t-25.5 109zM850 694h418q-59 35 -99.5 94.5t-40.5 131.5q0 57 27 107t70 85 q-78 -20 -136.5 -62t-102.5 -97.5t-76.5 -122t-59.5 -136.5zM1116 352q0 -53 21.5 -103t60.5 -89q-41 86 -41 180q0 66 19.5 127.5t60.5 112.5q-53 -41 -87 -100.5t-34 -127.5zM1188 920q0 -45 21.5 -84t56.5 -68q-47 72 -47 160q0 61 22 119q-25 -27 -39 -60t-14 -67z" />
<glyph unicode="&#xc7;" horiz-adv-x="1052" d="M55 596q0 121 43 229.5t119 189.5t181.5 129t228.5 48q61 0 122.5 -20.5t110.5 -59.5t80 -92t31 -121q0 -18 -6.5 -39.5t-18.5 -40t-29.5 -31t-39.5 -12.5q-37 0 -66 34t-29 69q0 27 17.5 45t44.5 18q20 0 37.5 -10t29.5 -27q-2 51 -26.5 92t-62.5 71t-85 46t-92 16 q-115 0 -196.5 -46t-134 -121.5t-78 -173t-25.5 -197.5q0 -96 24.5 -191.5t75.5 -171t130 -123t190 -47.5q45 0 90 14.5t87 39t79 56.5t65 67l45 -37q-74 -92 -178 -145.5t-223 -53.5q-121 0 -220.5 50t-170 134t-110.5 190.5t-40 221.5zM115 596q0 -96 29.5 -186.5 t86.5 -165.5q-41 80 -59 168t-18 180t18.5 182t63.5 172q-59 -74 -90 -165t-31 -185zM315 -162q0 37 24.5 61.5t61.5 24.5q29 0 50.5 -19.5t21.5 -50.5q0 -29 -19.5 -50t-48.5 -21h-8q29 -29 74 -29q41 0 76 26.5t35 71.5q0 53 -43 88t-95 35v57q37 0 73 -13t63.5 -36.5 t44 -57.5t16.5 -73q0 -35 -14.5 -63.5t-38 -50t-54 -32.5t-63.5 -11q-31 0 -58.5 11t-49 29.5t-35 45t-13.5 57.5z" />
<glyph unicode="&#xc8;" horiz-adv-x="888" d="M55 348q0 115 70 203t174 127q-72 33 -122 95.5t-50 144.5q0 63 27.5 113t72.5 86t101.5 54.5t115.5 18.5q53 0 101.5 -18.5t85.5 -49t59.5 -71.5t22.5 -88q0 -29 -15.5 -47.5t-44.5 -18.5q-41 0 -67.5 34t-26.5 73q0 25 14.5 41t40.5 18q-29 37 -73.5 53.5t-91.5 16.5 q-43 0 -75 -16.5t-53.5 -44.5t-33 -63.5t-11.5 -74.5q0 -49 16.5 -91t45.5 -73t70 -48t90 -17h125v-60h-80q-70 0 -130.5 -18.5t-104.5 -57.5t-68.5 -96t-24.5 -135q0 -53 15.5 -103.5t46 -89.5t74.5 -62.5t104 -23.5q115 0 204 58.5t117 173.5l58 -15q-16 -66 -52.5 -118 t-87.5 -86.5t-112.5 -53t-126.5 -18.5q-74 0 -145.5 24.5t-128 70.5t-91.5 109.5t-35 143.5zM115 352q0 -55 21.5 -104t60.5 -88q-41 86 -41 180q0 66 19.5 127.5t60.5 112.5q-53 -41 -87 -100.5t-34 -127.5zM186 920q0 -45 21.5 -84t56.5 -68q-47 72 -47 160q0 61 23 119 q-25 -27 -39.5 -60t-14.5 -67zM317 1364l33 49l227 -152l-32 -49z" />
<glyph unicode="&#xc9;" horiz-adv-x="888" d="M55 348q0 115 70 203t174 127q-72 33 -122 95.5t-50 144.5q0 63 27.5 113t72.5 86t101.5 54.5t115.5 18.5q53 0 101.5 -18.5t85.5 -49t59.5 -71.5t22.5 -88q0 -29 -15.5 -47.5t-44.5 -18.5q-41 0 -67.5 34t-26.5 73q0 25 14.5 41t40.5 18q-29 37 -73.5 53.5t-91.5 16.5 q-43 0 -75 -16.5t-53.5 -44.5t-33 -63.5t-11.5 -74.5q0 -49 16.5 -91t45.5 -73t70 -48t90 -17h125v-60h-80q-70 0 -130.5 -18.5t-104.5 -57.5t-68.5 -96t-24.5 -135q0 -53 15.5 -103.5t46 -89.5t74.5 -62.5t104 -23.5q115 0 204 58.5t117 173.5l58 -15q-16 -66 -52.5 -118 t-87.5 -86.5t-112.5 -53t-126.5 -18.5q-74 0 -145.5 24.5t-128 70.5t-91.5 109.5t-35 143.5zM115 352q0 -55 21.5 -104t60.5 -88q-41 86 -41 180q0 66 19.5 127.5t60.5 112.5q-53 -41 -87 -100.5t-34 -127.5zM186 920q0 -45 21.5 -84t56.5 -68q-47 72 -47 160q0 61 23 119 q-25 -27 -39.5 -60t-14.5 -67zM350 1261l228 152l32 -49l-227 -152z" />
<glyph unicode="&#xca;" horiz-adv-x="888" d="M55 348q0 115 70 203t174 127q-72 33 -122 95.5t-50 144.5q0 63 27.5 113t72.5 86t101.5 54.5t115.5 18.5q53 0 101.5 -18.5t85.5 -49t59.5 -71.5t22.5 -88q0 -29 -15.5 -47.5t-44.5 -18.5q-41 0 -67.5 34t-26.5 73q0 25 14.5 41t40.5 18q-29 37 -73.5 53.5t-91.5 16.5 q-43 0 -75 -16.5t-53.5 -44.5t-33 -63.5t-11.5 -74.5q0 -49 16.5 -91t45.5 -73t70 -48t90 -17h125v-60h-80q-70 0 -130.5 -18.5t-104.5 -57.5t-68.5 -96t-24.5 -135q0 -53 15.5 -103.5t46 -89.5t74.5 -62.5t104 -23.5q115 0 204 58.5t117 173.5l58 -15q-16 -66 -52.5 -118 t-87.5 -86.5t-112.5 -53t-126.5 -18.5q-74 0 -145.5 24.5t-128 70.5t-91.5 109.5t-35 143.5zM115 352q0 -55 21.5 -104t60.5 -88q-41 86 -41 180q0 66 19.5 127.5t60.5 112.5q-53 -41 -87 -100.5t-34 -127.5zM186 920q0 -45 21.5 -84t56.5 -68q-47 72 -47 160q0 61 23 119 q-25 -27 -39.5 -60t-14.5 -67zM258 1223l191 163l188 -163h-88l-100 86l-101 -86h-90z" />
<glyph unicode="&#xcb;" horiz-adv-x="888" d="M55 348q0 115 70 203t174 127q-72 33 -122 95.5t-50 144.5q0 63 27.5 113t72.5 86t101.5 54.5t115.5 18.5q53 0 101.5 -18.5t85.5 -49t59.5 -71.5t22.5 -88q0 -29 -15.5 -47.5t-44.5 -18.5q-41 0 -67.5 34t-26.5 73q0 25 14.5 41t40.5 18q-29 37 -73.5 53.5t-91.5 16.5 q-43 0 -75 -16.5t-53.5 -44.5t-33 -63.5t-11.5 -74.5q0 -49 16.5 -91t45.5 -73t70 -48t90 -17h125v-60h-80q-70 0 -130.5 -18.5t-104.5 -57.5t-68.5 -96t-24.5 -135q0 -53 15.5 -103.5t46 -89.5t74.5 -62.5t104 -23.5q115 0 204 58.5t117 173.5l58 -15q-16 -66 -52.5 -118 t-87.5 -86.5t-112.5 -53t-126.5 -18.5q-74 0 -145.5 24.5t-128 70.5t-91.5 109.5t-35 143.5zM115 352q0 -55 21.5 -104t60.5 -88q-41 86 -41 180q0 66 19.5 127.5t60.5 112.5q-53 -41 -87 -100.5t-34 -127.5zM186 920q0 -45 21.5 -84t56.5 -68q-47 72 -47 160q0 61 23 119 q-25 -27 -39.5 -60t-14.5 -67zM315 1286q0 23 15.5 38t38.5 15t39 -15t16 -38t-16.5 -38t-38.5 -15q-23 0 -38.5 15t-15.5 38zM471 1286q0 23 15.5 38t37.5 15q23 0 39 -15t16 -38t-16 -38t-39 -15t-38 15t-15 38z" />
<glyph unicode="&#xcc;" horiz-adv-x="552" d="M55 0v59h148v1074h-148v59h443v-59h-142v-1074h142v-59h-443zM168 1364l33 49l227 -152l-32 -49zM262 59h35v1074h-35v-1074z" />
<glyph unicode="&#xcd;" horiz-adv-x="552" d="M55 0v59h148v1074h-148v59h443v-59h-142v-1074h142v-59h-443zM168 1261l228 152l32 -49l-227 -152zM262 59h35v1074h-35v-1074z" />
<glyph unicode="&#xce;" horiz-adv-x="552" d="M55 0v59h148v1074h-148v59h443v-59h-142v-1074h142v-59h-443zM90 1223l191 163l188 -163h-88l-100 86l-101 -86h-90zM262 59h35v1074h-35v-1074z" />
<glyph unicode="&#xcf;" horiz-adv-x="552" d="M55 0v59h148v1074h-148v59h443v-59h-142v-1074h142v-59h-443zM147 1286q0 23 15.5 38t38.5 15t39 -15t16 -38t-16.5 -38t-38.5 -15q-23 0 -38.5 15t-15.5 38zM262 59h35v1074h-35v-1074zM303 1286q0 23 15.5 38t37.5 15q23 0 39 -15t16 -38t-16 -38t-39 -15t-38 15 t-15 38z" />
<glyph unicode="&#xd0;" horiz-adv-x="1320" d="M55 743q0 100 36 182.5t99.5 141.5t147.5 92t182 33q76 123 178 213l39 -43q-33 -29 -65.5 -80t-53.5 -90q127 0 245 -40t207 -114.5t142.5 -185.5t53.5 -252q0 -123 -45 -232.5t-125 -191.5t-188.5 -129t-233.5 -47h-443v59h150v258q-72 20 -131.5 61.5t-102.5 97.5 t-67.5 125t-24.5 142zM113 743q0 -61 20.5 -118.5t55 -105.5t84 -84t106.5 -56v119h-127v59h127q0 154 18 294t90 279q-80 -4 -148.5 -34.5t-118.5 -81.5t-78.5 -120t-28.5 -151zM438 59h35v439h-35v-439zM438 557h35v154q0 72 3 142t13 140q-51 -150 -51 -301v-135zM532 59 h97q106 0 195 46.5t152.5 121t98.5 171t35 198.5q0 100 -35 197.5t-98.5 172t-152.5 121t-195 46.5h-37q-41 -96 -50.5 -199t-9.5 -207v-170h125v-59h-125v-142q115 4 211 68l33 -47q-113 -76 -244 -80v-238zM1024 188q88 78 136 184.5t48 223.5t-48 223.5t-136 184.5 q72 -86 108.5 -191.5t36.5 -216.5t-36.5 -216.5t-108.5 -191.5z" />
<glyph unicode="&#xd1;" horiz-adv-x="1464" d="M55 240q0 45 17.5 83.5t47.5 68.5t68.5 46.5t83.5 16.5q78 0 121 -47.5t43 -122.5q0 -37 -19.5 -68t-60.5 -31t-68.5 32t-27.5 73q0 27 15.5 43t41.5 16q27 0 50 -16q-29 66 -97 65q-31 0 -59.5 -13t-50 -35.5t-33.5 -51.5t-12 -59q0 -53 21.5 -93.5t56 -68t79.5 -41.5 t95 -14q92 0 160.5 41.5t114.5 108.5t69.5 148.5t23.5 163.5v645h-178v60h309l467 -856v637q0 68 6.5 157t33 167.5t82.5 134t155 55.5q70 0 121 -43t51 -115q0 -59 -43 -94t-101 -35q-18 0 -36.5 7t-35 20.5t-26.5 31t-10 35.5q0 27 18.5 44.5t44.5 17.5q33 0 64 -23.5 t39 -56.5q27 23 26 55q0 47 -36.5 72.5t-77.5 25.5q-74 0 -117 -43t-64.5 -105t-27.5 -136t-6 -135v-1010h-47l-551 1008v-521q0 -94 -28 -187t-82 -168t-134 -121t-184 -46q-61 0 -117.5 19.5t-100 54.5t-69 86t-25.5 117zM795 1130l2 -6l536 -981v68l-502 919h-36z M852 1259q14 35 36 61.5t65 26.5q29 0 55.5 -11t52 -24.5t49 -24.5t45.5 -11q25 0 33 16.5t17 34.5l55 -21q-14 -37 -34.5 -63.5t-66.5 -26.5q-29 0 -57.5 11.5t-54 25t-50 24.5t-44.5 11q-23 0 -31 -16.5t-14 -34.5z" />
<glyph unicode="&#xd2;" horiz-adv-x="1220" d="M55 598q0 117 41 227.5t114 195.5t175 137t225 52t225.5 -52t175 -137t113.5 -195.5t41 -227.5t-41 -226.5t-113.5 -195.5t-175 -138t-225.5 -52t-225 52t-175 138t-114 195.5t-41 226.5zM115 598q0 -104 34.5 -204.5t104.5 -180.5q-53 86 -77.5 185.5t-24.5 199.5 t24.5 199.5t77.5 185.5q-70 -78 -104.5 -179.5t-34.5 -205.5zM211 598q0 -86 24.5 -182.5t73.5 -179t124 -137t177 -54.5q100 0 176 54.5t125.5 137t74 179t24.5 182.5q0 104 -30 206.5t-91 188.5q-49 68 -120 114t-159 46t-158.5 -46t-119.5 -114q-61 -86 -91 -188.5 t-30 -206.5zM499 1364l33 49l227 -152l-32 -49zM965 213q70 80 105.5 180.5t35.5 206.5q0 104 -36 203.5t-105 179.5q53 -86 77.5 -185.5t24.5 -199.5t-24.5 -199.5t-77.5 -185.5z" />
<glyph unicode="&#xd3;" horiz-adv-x="1220" d="M55 598q0 117 41 227.5t114 195.5t175 137t225 52t225.5 -52t175 -137t113.5 -195.5t41 -227.5t-41 -226.5t-113.5 -195.5t-175 -138t-225.5 -52t-225 52t-175 138t-114 195.5t-41 226.5zM115 598q0 -104 34.5 -204.5t104.5 -180.5q-53 86 -77.5 185.5t-24.5 199.5 t24.5 199.5t77.5 185.5q-70 -78 -104.5 -179.5t-34.5 -205.5zM211 598q0 -86 24.5 -182.5t73.5 -179t124 -137t177 -54.5q100 0 176 54.5t125.5 137t74 179t24.5 182.5q0 104 -30 206.5t-91 188.5q-49 68 -120 114t-159 46t-158.5 -46t-119.5 -114q-61 -86 -91 -188.5 t-30 -206.5zM499 1261l228 152l32 -49l-227 -152zM965 213q70 80 105.5 180.5t35.5 206.5q0 104 -36 203.5t-105 179.5q53 -86 77.5 -185.5t24.5 -199.5t-24.5 -199.5t-77.5 -185.5z" />
<glyph unicode="&#xd4;" horiz-adv-x="1220" d="M55 598q0 117 41 227.5t114 195.5t175 137t225 52t225.5 -52t175 -137t113.5 -195.5t41 -227.5t-41 -226.5t-113.5 -195.5t-175 -138t-225.5 -52t-225 52t-175 138t-114 195.5t-41 226.5zM115 598q0 -104 34.5 -204.5t104.5 -180.5q-53 86 -77.5 185.5t-24.5 199.5 t24.5 199.5t77.5 185.5q-70 -78 -104.5 -179.5t-34.5 -205.5zM211 598q0 -86 24.5 -182.5t73.5 -179t124 -137t177 -54.5q100 0 176 54.5t125.5 137t74 179t24.5 182.5q0 104 -30 206.5t-91 188.5q-49 68 -120 114t-159 46t-158.5 -46t-119.5 -114q-61 -86 -91 -188.5 t-30 -206.5zM420 1235l191 163l188 -163h-88l-100 86l-101 -86h-90zM965 213q70 80 105.5 180.5t35.5 206.5q0 104 -36 203.5t-105 179.5q53 -86 77.5 -185.5t24.5 -199.5t-24.5 -199.5t-77.5 -185.5z" />
<glyph unicode="&#xd5;" horiz-adv-x="1220" d="M55 598q0 117 41 227.5t114 195.5t175 137t225 52t225.5 -52t175 -137t113.5 -195.5t41 -227.5t-41 -226.5t-113.5 -195.5t-175 -138t-225.5 -52t-225 52t-175 138t-114 195.5t-41 226.5zM115 598q0 -104 34.5 -204.5t104.5 -180.5q-53 86 -77.5 185.5t-24.5 199.5 t24.5 199.5t77.5 185.5q-70 -78 -104.5 -179.5t-34.5 -205.5zM211 598q0 -86 24.5 -182.5t73.5 -179t124 -137t177 -54.5q100 0 176 54.5t125.5 137t74 179t24.5 182.5q0 104 -30 206.5t-91 188.5q-49 68 -120 114t-159 46t-158.5 -46t-119.5 -114q-61 -86 -91 -188.5 t-30 -206.5zM413 1276q14 35 36 61.5t65 26.5q29 0 55.5 -11t52 -24.5t49 -24.5t45.5 -11q25 0 33 16.5t17 34.5l55 -21q-14 -37 -34.5 -63.5t-66.5 -26.5q-29 0 -57.5 11.5t-54 25t-50 24.5t-44.5 11q-23 0 -31 -16.5t-14 -34.5zM965 213q70 80 105.5 180.5t35.5 206.5 q0 104 -36 203.5t-105 179.5q53 -86 77.5 -185.5t24.5 -199.5t-24.5 -199.5t-77.5 -185.5z" />
<glyph unicode="&#xd6;" horiz-adv-x="1220" d="M55 598q0 117 41 227.5t114 195.5t175 137t225 52t225.5 -52t175 -137t113.5 -195.5t41 -227.5t-41 -226.5t-113.5 -195.5t-175 -138t-225.5 -52t-225 52t-175 138t-114 195.5t-41 226.5zM115 598q0 -104 34.5 -204.5t104.5 -180.5q-53 86 -77.5 185.5t-24.5 199.5 t24.5 199.5t77.5 185.5q-70 -78 -104.5 -179.5t-34.5 -205.5zM211 598q0 -86 24.5 -182.5t73.5 -179t124 -137t177 -54.5q100 0 176 54.5t125.5 137t74 179t24.5 182.5q0 104 -30 206.5t-91 188.5q-49 68 -120 114t-159 46t-158.5 -46t-119.5 -114q-61 -86 -91 -188.5 t-30 -206.5zM479 1296q0 23 15.5 38t38.5 15t39 -15t16 -38t-16.5 -38t-38.5 -15q-23 0 -38.5 15t-15.5 38zM635 1296q0 23 15.5 38t37.5 15q23 0 39 -15t16 -38t-16 -38t-39 -15t-38 15t-15 38zM965 213q70 80 105.5 180.5t35.5 206.5q0 104 -36 203.5t-105 179.5 q53 -86 77.5 -185.5t24.5 -199.5t-24.5 -199.5t-77.5 -185.5z" />
<glyph unicode="&#xd7;" horiz-adv-x="677" d="M55 612l60 60l223 -217l225 217l60 -62l-220 -221l218 -223l-60 -62l-219 222l-225 -222l-60 62l219 221z" />
<glyph unicode="&#xd8;" horiz-adv-x="1220" d="M55 598q0 117 41 227.5t114 195.5t175 137t225 52q115 0 215.5 -46t175.5 -132l78 78l41 -43l-82 -82q61 -84 94 -183.5t33 -203.5q0 -117 -41 -226.5t-113.5 -195.5t-175 -138t-225.5 -52q-117 0 -216 47t-175 133l-78 -78l-43 41l84 82q-61 84 -94 183.5t-33 203.5z M115 598q0 -92 27.5 -180t80.5 -164l6 6q-41 78 -59 165t-18 175q0 100 24.5 198.5t77.5 184.5q-70 -80 -104.5 -180.5t-34.5 -204.5zM211 596q0 -156 61 -293l646 645q-23 41 -56 79t-72.5 65.5t-86 44t-93.5 16.5q-88 0 -158.5 -46t-119.5 -114q-61 -86 -91 -189.5 t-30 -207.5zM301 248q25 -41 55.5 -77t68.5 -64.5t84 -45t101 -16.5q100 0 175 54.5t124 135t74 178t25 183.5q0 78 -14.5 152.5t-47.5 144.5zM965 213q70 80 105.5 180.5t35.5 204.5q0 92 -27.5 181t-81.5 165l-6 -6q39 -78 57.5 -164t18.5 -172q0 -102 -24.5 -201.5 t-77.5 -187.5z" />
<glyph unicode="&#xd9;" horiz-adv-x="1462" d="M55 788q0 88 36 162t96.5 128.5t139.5 84t165 29.5h360v-59h-256v-713q63 8 118.5 35.5t97.5 70.5t66.5 99.5t24.5 122.5v21t-2 22l60 16q2 -12 3 -24.5t1 -24.5q0 -78 -30 -146.5t-80 -121t-116.5 -86t-142.5 -44.5q0 -66 15.5 -124t48 -101t86 -67.5t131.5 -24.5 q59 0 117.5 20.5t104.5 57.5t74.5 89t28.5 118v805h-121v59h326v-59h-145v-805q0 -80 -37 -144.5t-95.5 -109.5t-131 -69.5t-146.5 -24.5q-86 0 -160 26.5t-129 76.5t-87 120.5t-32 158.5q-78 12 -147.5 50.5t-123.5 95.5t-86 129t-32 151zM115 799q0 -70 26.5 -132.5 t71.5 -111.5t105.5 -83t125.5 -48v706q-66 -6 -125 -32.5t-105 -70.5t-72.5 -102.5t-26.5 -125.5zM504 328q-1 -96 67 -170q-35 63 -34 133v842h-33v-805zM737 1364l33 49l227 -152l-32 -49z" />
<glyph unicode="&#xda;" horiz-adv-x="1462" d="M55 788q0 88 36 162t96.5 128.5t139.5 84t165 29.5h360v-59h-256v-713q63 8 118.5 35.5t97.5 70.5t66.5 99.5t24.5 122.5v21t-2 22l60 16q2 -12 3 -24.5t1 -24.5q0 -78 -30 -146.5t-80 -121t-116.5 -86t-142.5 -44.5q0 -66 15.5 -124t48 -101t86 -67.5t131.5 -24.5 q59 0 117.5 20.5t104.5 57.5t74.5 89t28.5 118v805h-121v59h326v-59h-145v-805q0 -80 -37 -144.5t-95.5 -109.5t-131 -69.5t-146.5 -24.5q-86 0 -160 26.5t-129 76.5t-87 120.5t-32 158.5q-78 12 -147.5 50.5t-123.5 95.5t-86 129t-32 151zM115 799q0 -70 26.5 -132.5 t71.5 -111.5t105.5 -83t125.5 -48v706q-66 -6 -125 -32.5t-105 -70.5t-72.5 -102.5t-26.5 -125.5zM504 328q-1 -96 67 -170q-35 63 -34 133v842h-33v-805zM770 1261l228 152l32 -49l-227 -152z" />
<glyph unicode="&#xdb;" horiz-adv-x="1462" d="M55 788q0 88 36 162t96.5 128.5t139.5 84t165 29.5h360v-59h-256v-713q63 8 118.5 35.5t97.5 70.5t66.5 99.5t24.5 122.5v21t-2 22l60 16q2 -12 3 -24.5t1 -24.5q0 -78 -30 -146.5t-80 -121t-116.5 -86t-142.5 -44.5q0 -66 15.5 -124t48 -101t86 -67.5t131.5 -24.5 q59 0 117.5 20.5t104.5 57.5t74.5 89t28.5 118v805h-121v59h326v-59h-145v-805q0 -80 -37 -144.5t-95.5 -109.5t-131 -69.5t-146.5 -24.5q-86 0 -160 26.5t-129 76.5t-87 120.5t-32 158.5q-78 12 -147.5 50.5t-123.5 95.5t-86 129t-32 151zM115 799q0 -70 26.5 -132.5 t71.5 -111.5t105.5 -83t125.5 -48v706q-66 -6 -125 -32.5t-105 -70.5t-72.5 -102.5t-26.5 -125.5zM504 328q-1 -96 67 -170q-35 63 -34 133v842h-33v-805zM723 1223l191 163l188 -163h-88l-100 86l-101 -86h-90z" />
<glyph unicode="&#xdc;" horiz-adv-x="1462" d="M55 788q0 88 36 162t96.5 128.5t139.5 84t165 29.5h360v-59h-256v-713q63 8 118.5 35.5t97.5 70.5t66.5 99.5t24.5 122.5v21t-2 22l60 16q2 -12 3 -24.5t1 -24.5q0 -78 -30 -146.5t-80 -121t-116.5 -86t-142.5 -44.5q0 -66 15.5 -124t48 -101t86 -67.5t131.5 -24.5 q59 0 117.5 20.5t104.5 57.5t74.5 89t28.5 118v805h-121v59h326v-59h-145v-805q0 -80 -37 -144.5t-95.5 -109.5t-131 -69.5t-146.5 -24.5q-86 0 -160 26.5t-129 76.5t-87 120.5t-32 158.5q-78 12 -147.5 50.5t-123.5 95.5t-86 129t-32 151zM115 799q0 -70 26.5 -132.5 t71.5 -111.5t105.5 -83t125.5 -48v706q-66 -6 -125 -32.5t-105 -70.5t-72.5 -102.5t-26.5 -125.5zM504 328q-1 -96 67 -170q-35 63 -34 133v842h-33v-805zM788 1286q0 23 15.5 38t38.5 15t39 -15t16 -38t-16.5 -38t-38.5 -15q-23 0 -38.5 15t-15.5 38zM944 1286 q0 23 15.5 38t37.5 15q23 0 39 -15t16 -38t-16 -38t-39 -15t-38 15t-15 38z" />
<glyph unicode="&#xdd;" horiz-adv-x="1165" d="M55 -158q0 55 30 88t85 33q45 0 80 -29.5t35 -76.5q0 -25 -16.5 -43.5t-41.5 -18.5q-33 0 -62.5 31t-37.5 59q-12 -16 -12 -39q0 -31 16 -53t41 -35.5t53.5 -19.5t53.5 -6q47 0 93 21.5t89 54t81 70.5t68 69l-397 1186h-158v59h443v-59h-121l348 -1043q57 80 115.5 181.5 t105.5 212t78 223t31 213.5q0 57 -12.5 106t-39 85t-70.5 56.5t-106 20.5q-37 0 -69.5 -16.5t-57 -42t-38 -60.5t-13.5 -72q0 -59 37 -102l-45 -39q-51 61 -51 139q0 49 18.5 94.5t51 81t76.5 56t93 20.5q76 0 129.5 -24.5t87 -68.5t49 -104.5t15.5 -129.5q0 -63 -10 -126 t-27 -122q-35 -117 -87 -238t-120.5 -235.5t-149.5 -218t-173 -183.5q-53 -47 -120.5 -86t-139.5 -39q-39 0 -79 10.5t-73 31t-54.5 53t-21.5 75.5zM274 1133l381 -1133l27 33l-367 1100h-41zM540 1261l228 152l32 -49l-227 -152z" />
<glyph unicode="&#xde;" horiz-adv-x="1075" d="M55 631q0 88 29 165.5t80 139t123.5 102.5t158.5 58q41 98 108 177t155 136l30 -49q-55 -55 -102 -117.5t-70 -138.5q111 0 197 -36t143.5 -92t87 -128t29.5 -143q0 -61 -22.5 -120t-67.5 -103t-115 -70.5t-164 -26.5q-59 0 -116 12v-180q102 0 188 49l29 -51 q-102 -57 -217 -57v-99h141v-59h-442v59h149v123q-72 25 -132 69t-105.5 103.5t-70 129t-24.5 147.5zM115 631q0 -66 20.5 -125.5t56 -109.5t86 -89t109.5 -61v536q0 125 35 248q-70 -18 -127 -55t-97 -89t-61.5 -118t-21.5 -137zM446 59h33v723q0 66 2.5 130t12.5 130 q-27 -63 -37.5 -128.5t-10.5 -131.5v-723zM539 463q38 -6 77 -6q61 0 106.5 21.5t74 58t43 84t14.5 98.5q0 57 -18.5 114.5t-52 103.5t-84 74.5t-113.5 28.5q-23 0 -33 -2q-10 -59 -12 -120.5t-2 -120.5v-334zM821 985q45 -51 68.5 -120.5t23.5 -141.5q0 -61 -17 -120.5 t-52 -108.5q59 37 88 95t29 124q0 78 -37 152.5t-103 119.5z" />
<glyph unicode="&#xdf;" horiz-adv-x="714" d="M55 401v60h68v588q0 59 43 101t102 42q68 0 123 -39t94 -101.5t59.5 -143.5t20.5 -165q0 -104 -29.5 -185t-93.5 -159q-4 -4 -10 -14t-6 -16q0 -16 37 -41t80 -57.5t79.5 -70.5t36.5 -79q0 -31 -16 -54.5t-42 -40t-57.5 -24.5t-62.5 -8q-29 0 -59.5 8t-58 23.5t-45 39 t-17.5 56.5q0 25 15.5 46t43.5 21q41 0 69 -30.5t28 -69.5q0 -10 -2 -17.5t-6 -15.5q10 -2 17 -3t17 -1q14 0 37 6t23 27q0 8 -15.5 23.5t-36 32t-39 30.5t-26.5 20q-16 12 -35.5 26.5t-37 32t-29 38t-11.5 43.5q0 41 15.5 60.5t44.5 41.5q35 31 58.5 72t37.5 85t20.5 86 t6.5 73q0 61 -15.5 126.5t-45 122t-73 94t-98.5 42.5v-1393l-141 -41v702h-68zM180 -223l23 8v1321q-23 -27 -23 -57v-1272zM373 334q0 -23 31.5 -51.5t71.5 -58t76 -60.5t46 -58q0 4 1 5.5t1 5.5q0 27 -36 56.5t-78 59t-77.5 55t-35.5 46.5z" />
<glyph unicode="&#xe0;" horiz-adv-x="659" d="M55 231q0 43 14.5 84t41 74t63.5 52.5t84 19.5q59 0 107 -35v23h139v-369q0 -10 10 -10q14 0 23.5 21.5t9.5 31.5h57q0 -51 -36 -86t-87 -35q-59 0 -94 51q-55 -51 -129 -51q-47 0 -84 19.5t-63.5 51t-41 73.5t-14.5 85zM113 231q0 -47 19.5 -87.5t60.5 -63.5 q-20 29 -29.5 65.5t-9.5 75.5q0 88 39 162q-41 -25 -60.5 -66t-19.5 -86zM198 633l33 49l227 -152l-32 -49zM207 233q0 -61 21.5 -111t64.5 -50q35 0 72 45v229q-35 49 -70 49q-23 0 -39 -14t-27.5 -36.5t-16.5 -51.5t-5 -60zM426 123q0 -31 23 -47v303h-23v-256z" />
<glyph unicode="&#xe1;" horiz-adv-x="659" d="M55 231q0 43 14.5 84t41 74t63.5 52.5t84 19.5q59 0 107 -35v23h139v-369q0 -10 10 -10q14 0 23.5 21.5t9.5 31.5h57q0 -51 -36 -86t-87 -35q-59 0 -94 51q-55 -51 -129 -51q-47 0 -84 19.5t-63.5 51t-41 73.5t-14.5 85zM113 231q0 -47 19.5 -87.5t60.5 -63.5 q-20 29 -29.5 65.5t-9.5 75.5q0 88 39 162q-41 -25 -60.5 -66t-19.5 -86zM198 530l228 152l32 -49l-227 -152zM207 233q0 -61 21.5 -111t64.5 -50q35 0 72 45v229q-35 49 -70 49q-23 0 -39 -14t-27.5 -36.5t-16.5 -51.5t-5 -60zM426 123q0 -31 23 -47v303h-23v-256z" />
<glyph unicode="&#xe2;" horiz-adv-x="659" d="M55 231q0 43 14.5 84t41 74t63.5 52.5t84 19.5q59 0 107 -35v23h139v-369q0 -10 10 -10q14 0 23.5 21.5t9.5 31.5h57q0 -51 -36 -86t-87 -35q-59 0 -94 51q-55 -51 -129 -51q-47 0 -84 19.5t-63.5 51t-41 73.5t-14.5 85zM113 231q0 -47 19.5 -87.5t60.5 -63.5 q-20 29 -29.5 65.5t-9.5 75.5q0 88 39 162q-41 -25 -60.5 -66t-19.5 -86zM139 492l191 163l188 -163h-88l-100 86l-101 -86h-90zM207 233q0 -61 21.5 -111t64.5 -50q35 0 72 45v229q-35 49 -70 49q-23 0 -39 -14t-27.5 -36.5t-16.5 -51.5t-5 -60zM426 123q0 -31 23 -47v303 h-23v-256z" />
<glyph unicode="&#xe3;" horiz-adv-x="659" d="M55 231q0 43 14.5 84t41 74t63.5 52.5t84 19.5q59 0 107 -35v23h139v-369q0 -10 10 -10q14 0 23.5 21.5t9.5 31.5h57q0 -51 -36 -86t-87 -35q-59 0 -94 51q-55 -51 -129 -51q-47 0 -84 19.5t-63.5 51t-41 73.5t-14.5 85zM113 231q0 -47 19.5 -87.5t60.5 -63.5 q-20 29 -29.5 65.5t-9.5 75.5q0 88 39 162q-41 -25 -60.5 -66t-19.5 -86zM125 528q14 35 36 61.5t65 26.5q29 0 55.5 -11t52 -24.5t49 -24.5t45.5 -11q25 0 33 16.5t17 34.5l55 -21q-14 -37 -34.5 -63.5t-66.5 -26.5q-29 0 -57.5 11.5t-54 25t-50 24.5t-44.5 11 q-23 0 -31 -16.5t-14 -34.5zM207 233q0 -61 21.5 -111t64.5 -50q35 0 72 45v229q-35 49 -70 49q-23 0 -39 -14t-27.5 -36.5t-16.5 -51.5t-5 -60zM426 123q0 -31 23 -47v303h-23v-256z" />
<glyph unicode="&#xe4;" horiz-adv-x="659" d="M55 231q0 43 14.5 84t41 74t63.5 52.5t84 19.5q59 0 107 -35v23h139v-369q0 -10 10 -10q14 0 23.5 21.5t9.5 31.5h57q0 -51 -36 -86t-87 -35q-59 0 -94 51q-55 -51 -129 -51q-47 0 -84 19.5t-63.5 51t-41 73.5t-14.5 85zM113 231q0 -47 19.5 -87.5t60.5 -63.5 q-20 29 -29.5 65.5t-9.5 75.5q0 88 39 162q-41 -25 -60.5 -66t-19.5 -86zM196 555q0 23 15.5 38t38.5 15t39 -15t16 -38t-16.5 -38t-38.5 -15q-23 0 -38.5 15t-15.5 38zM207 233q0 -61 21.5 -111t64.5 -50q35 0 72 45v229q-35 49 -70 49q-23 0 -39 -14t-27.5 -36.5 t-16.5 -51.5t-5 -60zM352 555q0 23 15.5 38t37.5 15q23 0 39 -15t16 -38t-16 -38t-39 -15t-38 15t-15 38zM426 123q0 -31 23 -47v303h-23v-256z" />
<glyph unicode="&#xe5;" horiz-adv-x="659" d="M55 231q0 43 14.5 84t41 74t63.5 52.5t84 19.5q59 0 107 -35v23h139v-369q0 -10 10 -10q14 0 23.5 21.5t9.5 31.5h57q0 -51 -36 -86t-87 -35q-59 0 -94 51q-55 -51 -129 -51q-47 0 -84 19.5t-63.5 51t-41 73.5t-14.5 85zM113 231q0 -47 19.5 -87.5t60.5 -63.5 q-20 29 -29.5 65.5t-9.5 75.5q0 88 39 162q-41 -25 -60.5 -66t-19.5 -86zM207 233q0 -61 21.5 -111t64.5 -50q35 0 72 45v229q-35 49 -70 49q-23 0 -39 -14t-27.5 -36.5t-16.5 -51.5t-5 -60zM215 565q0 31 21.5 53.5t52.5 22.5t53.5 -22.5t22.5 -53.5t-22.5 -52t-53.5 -21 t-52.5 21.5t-21.5 51.5zM254 565q0 -16 10.5 -25.5t24.5 -9.5q16 0 25.5 10.5t9.5 24.5q0 16 -10.5 25.5t-24.5 9.5t-24.5 -10t-10.5 -25zM426 123q0 -31 23 -47v303h-23v-256z" />
<glyph unicode="&#xe6;" horiz-adv-x="849" d="M55 231q0 43 14.5 84t41 74t63.5 52.5t84 19.5q59 0 107 -35v23h141v-11q49 23 100 23q59 0 107.5 -29t48.5 -96q0 -41 -21.5 -72t-54.5 -52.5t-72 -34.5t-71 -21q6 -43 29.5 -69t58.5 -26t64.5 20.5t52.5 47.5l47 -37q-35 -41 -85.5 -65.5t-103.5 -24.5t-100 21.5 t-82 60.5q-41 -35 -76 -58.5t-90 -23.5q-47 0 -84 19.5t-63.5 52t-41 73.5t-14.5 84zM115 231q0 -45 19.5 -86.5t60.5 -64.5q-23 29 -31 63.5t-8 73.5q0 43 10 87t29 79q-41 -23 -60.5 -65t-19.5 -87zM209 231q0 -59 21.5 -109t62.5 -50q35 0 72 45v229q-18 27 -35 37 t-33 10q-23 0 -39 -14t-27.5 -37t-16.5 -51.5t-5 -59.5zM426 180q0 -31 23 -47v246h-23v-199zM535 215q20 6 49.5 15.5t56.5 24.5t45.5 35.5t18.5 49.5q0 31 -18.5 45t-47.5 14q-25 0 -43 -17t-32.5 -44t-21.5 -55.5t-7 -51.5v-16z" />
<glyph unicode="&#xe7;" horiz-adv-x="546" d="M55 -160q0 37 24.5 61.5t61.5 24.5q29 0 50.5 -19.5t21.5 -50.5q0 -29 -19.5 -50t-48.5 -21h-8q29 -29 74 -29q41 0 76 26.5t35 71.5q0 53 -43 88t-95 35v57q37 0 73 -13t63.5 -36.5t44 -57.5t16.5 -73q0 -35 -14.5 -63.5t-38 -50t-54 -32.5t-63.5 -11q-31 0 -58.5 11 t-49 29.5t-35 45t-13.5 57.5zM82 233q0 49 19.5 90.5t53.5 72t78 48t91 17.5q23 0 51.5 -6t54 -18.5t43 -32t17.5 -48.5t-19.5 -47t-48.5 -18q-33 0 -63.5 26.5t-30.5 61.5q0 12 2 18q-41 -12 -60.5 -61t-19.5 -107q0 -63 24.5 -115.5t71.5 -52.5q35 0 56.5 20.5t40.5 45.5 l49 -33q-33 -47 -72 -70.5t-98 -23.5q-49 0 -92 18.5t-76 49t-52.5 73.5t-19.5 92zM150 231q0 -45 19.5 -86.5t58.5 -64.5q-37 61 -37 145q0 41 9 82t28 76q-39 -23 -58.5 -65t-19.5 -87z" />
<glyph unicode="&#xe8;" horiz-adv-x="538" d="M55 227q0 49 18.5 92t51.5 74t77 49.5t95 18.5q59 0 107.5 -29t48.5 -96q0 -43 -22.5 -71.5t-55.5 -49t-71 -35t-71 -24.5q27 -94 89 -95q53 0 116 68l45 -37q-35 -43 -85 -67.5t-105 -24.5q-49 0 -93 18.5t-76 49t-50.5 71.5t-18.5 88zM121 231q0 -45 19.5 -86.5 t58.5 -64.5q-23 33 -30 70.5t-7 74.5q0 41 8 82t29 76q-39 -23 -58.5 -65t-19.5 -87zM139 633l33 49l227 -152l-32 -49zM223 215q20 6 50 15.5t56.5 23.5t45 34.5t18.5 49.5q0 33 -20.5 47t-48.5 14q-25 0 -44.5 -16t-31.5 -42t-18.5 -59.5t-6.5 -66.5z" />
<glyph unicode="&#xe9;" horiz-adv-x="538" d="M55 227q0 49 18.5 92t51.5 74t77 49.5t95 18.5q59 0 107.5 -29t48.5 -96q0 -43 -22.5 -71.5t-55.5 -49t-71 -35t-71 -24.5q27 -94 89 -95q53 0 116 68l45 -37q-35 -43 -85 -67.5t-105 -24.5q-49 0 -93 18.5t-76 49t-50.5 71.5t-18.5 88zM121 231q0 -45 19.5 -86.5 t58.5 -64.5q-23 33 -30 70.5t-7 74.5q0 41 8 82t29 76q-39 -23 -58.5 -65t-19.5 -87zM164 530l228 152l32 -49l-227 -152zM223 215q20 6 50 15.5t56.5 23.5t45 34.5t18.5 49.5q0 33 -20.5 47t-48.5 14q-25 0 -44.5 -16t-31.5 -42t-18.5 -59.5t-6.5 -66.5z" />
<glyph unicode="&#xea;" horiz-adv-x="538" d="M55 227q0 49 18.5 92t51.5 74t77 49.5t95 18.5q59 0 107.5 -29t48.5 -96q0 -43 -22.5 -71.5t-55.5 -49t-71 -35t-71 -24.5q27 -94 89 -95q53 0 116 68l45 -37q-35 -43 -85 -67.5t-105 -24.5q-49 0 -93 18.5t-76 49t-50.5 71.5t-18.5 88zM78 492l191 163l188 -163h-88 l-100 86l-101 -86h-90zM121 231q0 -45 19.5 -86.5t58.5 -64.5q-23 33 -30 70.5t-7 74.5q0 41 8 82t29 76q-39 -23 -58.5 -65t-19.5 -87zM223 215q20 6 50 15.5t56.5 23.5t45 34.5t18.5 49.5q0 33 -20.5 47t-48.5 14q-25 0 -44.5 -16t-31.5 -42t-18.5 -59.5t-6.5 -66.5z" />
<glyph unicode="&#xeb;" horiz-adv-x="538" d="M55 227q0 49 18.5 92t51.5 74t77 49.5t95 18.5q59 0 107.5 -29t48.5 -96q0 -43 -22.5 -71.5t-55.5 -49t-71 -35t-71 -24.5q27 -94 89 -95q53 0 116 68l45 -37q-35 -43 -85 -67.5t-105 -24.5q-49 0 -93 18.5t-76 49t-50.5 71.5t-18.5 88zM121 231q0 -45 19.5 -86.5 t58.5 -64.5q-23 33 -30 70.5t-7 74.5q0 41 8 82t29 76q-39 -23 -58.5 -65t-19.5 -87zM137 555q0 23 15.5 38t38.5 15t39 -15t16 -38t-16.5 -38t-38.5 -15q-23 0 -38.5 15t-15.5 38zM223 215q20 6 50 15.5t56.5 23.5t45 34.5t18.5 49.5q0 33 -20.5 47t-48.5 14 q-25 0 -44.5 -16t-31.5 -42t-18.5 -59.5t-6.5 -66.5zM293 555q0 23 15.5 38t37.5 15q23 0 39 -15t16 -38t-16 -38t-39 -15t-38 15t-15 38z" />
<glyph unicode="&#xec;" horiz-adv-x="350" d="M-6 633l33 49l227 -152l-32 -49zM55 123v326h140v-369q0 -10 8 -10q14 0 23.5 21.5t9.5 31.5h59q0 -49 -36 -85t-85 -36q-51 0 -85 36t-34 85zM113 123q0 -29 22 -47v313h-22v-266z" />
<glyph unicode="&#xed;" horiz-adv-x="350" d="M47 530l228 152l32 -49l-227 -152zM55 123v326h140v-369q0 -10 8 -10q14 0 23.5 21.5t9.5 31.5h59q0 -49 -36 -85t-85 -36q-51 0 -85 36t-34 85zM113 123q0 -29 22 -47v313h-22v-266z" />
<glyph unicode="&#xee;" horiz-adv-x="350" d="M-62 492l191 163l188 -163h-88l-100 86l-101 -86h-90zM55 123v326h140v-369q0 -10 8 -10q14 0 23.5 21.5t9.5 31.5h59q0 -49 -36 -85t-85 -36q-51 0 -85 36t-34 85zM113 123q0 -29 22 -47v313h-22v-266z" />
<glyph unicode="&#xef;" horiz-adv-x="350" d="M-6 555q0 23 15.5 38t38.5 15t39 -15t16 -38t-16.5 -38t-38.5 -15q-23 0 -38.5 15t-15.5 38zM55 123v326h140v-369q0 -10 8 -10q14 0 23.5 21.5t9.5 31.5h59q0 -49 -36 -85t-85 -36q-51 0 -85 36t-34 85zM113 123q0 -29 22 -47v313h-22v-266zM150 555q0 23 15.5 38 t37.5 15q23 0 39 -15t16 -38t-16 -38t-39 -15t-38 15t-15 38z" />
<glyph unicode="&#xf0;" horiz-adv-x="667" d="M55 231q0 49 19.5 91.5t52.5 73t76 48t90 17.5q25 0 50.5 -5t49.5 -16v537l-47 -27l-27 43l74 45v95q-16 0 -33.5 -7.5t-27.5 -17.5l-41 43q41 41 98 41q41 0 76 -21.5t53 -56.5l68 39l26 -43l-80 -47v-827q0 -104 -65.5 -169t-169.5 -65q-102 0 -172 62.5t-70 166.5z M119 231q0 -45 19.5 -86.5t58.5 -64.5q-20 29 -28.5 63.5t-8.5 73.5q0 45 10 88t27 78q-39 -23 -58.5 -65t-19.5 -87zM225 236q0 -74 29 -123.5t63 -49.5q20 0 40 19.5t36 62.5v228q-41 27 -74 26q-49 0 -71.5 -49t-22.5 -114zM453 150q23 18 22 47v847q0 35 -22 58v-952z " />
<glyph unicode="&#xf1;" horiz-adv-x="743" d="M55 340q0 53 36 87t89 34q35 0 63.5 -19.5t43.5 -54.5q29 33 70.5 53.5t86.5 20.5q53 0 99.5 -34t46.5 -93v-258q0 -6 8 -6q14 0 22.5 21.5t8.5 31.5h59q0 -49 -36 -85t-85 -36t-85 36t-36 85v242q0 14 -11 22t-23 8q-14 0 -34 -11t-38 -27.5t-30.5 -36t-12.5 -33.5v-287 l-141 2v381q0 10 -11 10q-12 0 -21 -21.5t-9 -31.5h-60zM168 528q14 35 36 61.5t65 26.5q29 0 55.5 -11t52 -24.5t49 -24.5t45.5 -11q25 0 33 16.5t17 34.5l55 -21q-14 -37 -34.5 -63.5t-66.5 -26.5q-29 0 -57.5 11.5t-54 25t-50 24.5t-44.5 11q-23 0 -31 -16.5t-14 -34.5z M215 59h23v263q0 18 -3.5 35.5t-19.5 29.5v-328zM504 383q4 -10 4 -33.5v-56.5q0 -47 -1 -97.5t-1 -72.5q0 -31 22 -47v258q0 29 -24 49z" />
<glyph unicode="&#xf2;" d="M55 231q0 43 14.5 84t42 74t64.5 52.5t84 19.5q45 0 83 -19.5t65.5 -52.5t42 -74t14.5 -84t-14.5 -85t-42 -73.5t-65.5 -52t-83 -20.5q-47 0 -84 20.5t-64.5 52t-42 73.5t-14.5 85zM115 231q0 -45 19.5 -86.5t60.5 -64.5q-39 63 -39 145q0 84 39 158q-41 -23 -60.5 -65 t-19.5 -87zM129 633l33 49l227 -152l-32 -49zM217 233q0 -59 21.5 -108t66.5 -49q49 0 72.5 46t23.5 103q0 31 -6 59.5t-19.5 51t-32.5 37t-44 14.5q-41 0 -61.5 -47t-20.5 -107z" />
<glyph unicode="&#xf3;" d="M55 231q0 43 14.5 84t42 74t64.5 52.5t84 19.5q45 0 83 -19.5t65.5 -52.5t42 -74t14.5 -84t-14.5 -85t-42 -73.5t-65.5 -52t-83 -20.5q-47 0 -84 20.5t-64.5 52t-42 73.5t-14.5 85zM115 231q0 -45 19.5 -86.5t60.5 -64.5q-39 63 -39 145q0 84 39 158q-41 -23 -60.5 -65 t-19.5 -87zM129 530l228 152l32 -49l-227 -152zM217 233q0 -59 21.5 -108t66.5 -49q49 0 72.5 46t23.5 103q0 31 -6 59.5t-19.5 51t-32.5 37t-44 14.5q-41 0 -61.5 -47t-20.5 -107z" />
<glyph unicode="&#xf4;" d="M55 231q0 43 14.5 84t42 74t64.5 52.5t84 19.5q45 0 83 -19.5t65.5 -52.5t42 -74t14.5 -84t-14.5 -85t-42 -73.5t-65.5 -52t-83 -20.5q-47 0 -84 20.5t-64.5 52t-42 73.5t-14.5 85zM69 492l191 163l188 -163h-88l-100 86l-101 -86h-90zM115 231q0 -45 19.5 -86.5 t60.5 -64.5q-39 63 -39 145q0 84 39 158q-41 -23 -60.5 -65t-19.5 -87zM217 233q0 -59 21.5 -108t66.5 -49q49 0 72.5 46t23.5 103q0 31 -6 59.5t-19.5 51t-32.5 37t-44 14.5q-41 0 -61.5 -47t-20.5 -107z" />
<glyph unicode="&#xf5;" d="M55 231q0 43 14.5 84t42 74t64.5 52.5t84 19.5q45 0 83 -19.5t65.5 -52.5t42 -74t14.5 -84t-14.5 -85t-42 -73.5t-65.5 -52t-83 -20.5q-47 0 -84 20.5t-64.5 52t-42 73.5t-14.5 85zM55 528q14 35 36 61.5t65 26.5q29 0 55.5 -11t52 -24.5t49 -24.5t45.5 -11q25 0 33 16.5 t17 34.5l55 -21q-14 -37 -34.5 -63.5t-66.5 -26.5q-29 0 -57.5 11.5t-54 25t-50 24.5t-44.5 11q-23 0 -31 -16.5t-14 -34.5zM115 231q0 -45 19.5 -86.5t60.5 -64.5q-39 63 -39 145q0 84 39 158q-41 -23 -60.5 -65t-19.5 -87zM217 233q0 -59 21.5 -108t66.5 -49q49 0 72.5 46 t23.5 103q0 31 -6 59.5t-19.5 51t-32.5 37t-44 14.5q-41 0 -61.5 -47t-20.5 -107z" />
<glyph unicode="&#xf6;" d="M55 231q0 43 14.5 84t42 74t64.5 52.5t84 19.5q45 0 83 -19.5t65.5 -52.5t42 -74t14.5 -84t-14.5 -85t-42 -73.5t-65.5 -52t-83 -20.5q-47 0 -84 20.5t-64.5 52t-42 73.5t-14.5 85zM115 231q0 -45 19.5 -86.5t60.5 -64.5q-39 63 -39 145q0 84 39 158q-41 -23 -60.5 -65 t-19.5 -87zM127 555q0 23 15.5 38t38.5 15t39 -15t16 -38t-16.5 -38t-38.5 -15q-23 0 -38.5 15t-15.5 38zM217 233q0 -59 21.5 -108t66.5 -49q49 0 72.5 46t23.5 103q0 31 -6 59.5t-19.5 51t-32.5 37t-44 14.5q-41 0 -61.5 -47t-20.5 -107zM283 555q0 23 15.5 38t37.5 15 q23 0 39 -15t16 -38t-16 -38t-39 -15t-38 15t-15 38z" />
<glyph unicode="&#xf7;" horiz-adv-x="794" d="M55 631v90h684v-90h-684zM346 475q0 29 18.5 47.5t47.5 18.5t47 -18.5t18 -47.5t-18.5 -47t-46.5 -18q-29 0 -47.5 18t-18.5 47zM346 868q0 29 18.5 47.5t47.5 18.5t47 -18.5t18 -47.5t-18.5 -47t-46.5 -18q-29 0 -47.5 18t-18.5 47z" />
<glyph unicode="&#xf8;" d="M55 231q0 43 14.5 84t42 74t64.5 52.5t84 19.5q39 0 78 -17l29 56h61l-43 -86q37 -35 58.5 -83.5t21.5 -99.5q0 -43 -14.5 -85t-42 -73.5t-65.5 -52t-83 -20.5q-33 0 -72 14l-26 -53h-64l41 84q-41 35 -62.5 84t-21.5 102zM115 231q0 -45 19.5 -86.5t60.5 -64.5 q-23 33 -30 71.5t-7 75.5q0 39 8 80t29 76q-41 -23 -60.5 -65t-19.5 -87zM217 231q0 -18 2 -28l90 184h-10q-25 0 -41 -17.5t-25.5 -42t-12.5 -51t-3 -45.5zM240 117q18 -41 65 -41q25 0 43.5 15t30.5 39t18 49.5t6 45.5q0 35 -11 70t-36 61z" />
<glyph unicode="&#xf9;" horiz-adv-x="636" d="M55 127v334h144v-365q0 -14 10 -21t24 -7q29 0 62 27.5t45 51.5v314h143v-395q39 10 39 55h60q0 -51 -36 -86t-87 -35q-35 0 -61.5 18.5t-43.5 49.5q-31 -29 -71.5 -48.5t-83.5 -19.5q-53 0 -98.5 35t-45.5 92zM113 127q-1 -29 28 -49q-2 6 -2 18v305h-26v-274zM159 633 l33 49l227 -152l-32 -49zM399 121q0 -14 6.5 -25.5t16.5 -21.5v327h-23v-280z" />
<glyph unicode="&#xfa;" horiz-adv-x="636" d="M55 127v334h144v-365q0 -14 10 -21t24 -7q29 0 62 27.5t45 51.5v314h143v-395q39 10 39 55h60q0 -51 -36 -86t-87 -35q-35 0 -61.5 18.5t-43.5 49.5q-31 -29 -71.5 -48.5t-83.5 -19.5q-53 0 -98.5 35t-45.5 92zM113 127q-1 -29 28 -49q-2 6 -2 18v305h-26v-274zM188 530 l228 152l32 -49l-227 -152zM399 121q0 -14 6.5 -25.5t16.5 -21.5v327h-23v-280z" />
<glyph unicode="&#xfb;" horiz-adv-x="636" d="M55 127v334h144v-365q0 -14 10 -21t24 -7q29 0 62 27.5t45 51.5v314h143v-395q39 10 39 55h60q0 -51 -36 -86t-87 -35q-35 0 -61.5 18.5t-43.5 49.5q-31 -29 -71.5 -48.5t-83.5 -19.5q-53 0 -98.5 35t-45.5 92zM82 492l191 163l188 -163h-88l-100 86l-101 -86h-90z M113 127q-1 -29 28 -49q-2 6 -2 18v305h-26v-274zM399 121q0 -14 6.5 -25.5t16.5 -21.5v327h-23v-280z" />
<glyph unicode="&#xfc;" horiz-adv-x="636" d="M55 127v334h144v-365q0 -14 10 -21t24 -7q29 0 62 27.5t45 51.5v314h143v-395q39 10 39 55h60q0 -51 -36 -86t-87 -35q-35 0 -61.5 18.5t-43.5 49.5q-31 -29 -71.5 -48.5t-83.5 -19.5q-53 0 -98.5 35t-45.5 92zM113 127q-1 -29 28 -49q-2 6 -2 18v305h-26v-274zM145 555 q0 23 15.5 38t38.5 15t39 -15t16 -38t-16.5 -38t-38.5 -15q-23 0 -38.5 15t-15.5 38zM301 555q0 23 15.5 38t37.5 15q23 0 39 -15t16 -38t-16 -38t-39 -15t-38 15t-15 38zM399 121q0 -14 6.5 -25.5t16.5 -21.5v327h-23v-280z" />
<glyph unicode="&#xfd;" horiz-adv-x="528" d="M55 127v334h144v-365q0 -14 11 -21t26 -7q25 0 53 22.5t43 42.5v328h141v-776q0 -59 -42 -101.5t-101 -42.5t-101 41l43 43q10 -10 23.5 -17t36.5 -7v448q-29 -23 -62.5 -36t-70.5 -13q-53 0 -98.5 35t-45.5 92zM115 127q-1 -29 26 -49q-2 6 -2 18v305h-24v-274zM157 530 l228 152l32 -49l-227 -152zM391 -373q23 23 23 58v716h-23v-774z" />
<glyph unicode="&#xfe;" horiz-adv-x="548" d="M55 -459v1405h142v-512q47 27 94 27q45 0 83 -19.5t64.5 -52.5t41 -75t14.5 -85t-14.5 -84t-41 -72.5t-64.5 -51t-83 -19.5q-53 0 -94 27v-488h-142zM115 -399h22v1286h-22v-1286zM197 102q32 -32 61 -32q41 0 61.5 48t20.5 107q0 63 -20.5 115.5t-61.5 52.5 q-29 0 -61 -35v-256zM367 86q35 25 52 64.5t17 80.5t-17.5 81t-51.5 65q35 -66 34 -146q1 -75 -34 -145z" />
<glyph unicode="&#xff;" horiz-adv-x="528" d="M55 127v334h144v-365q0 -14 11 -21t26 -7q25 0 53 22.5t43 42.5v328h141v-776q0 -59 -42 -101.5t-101 -42.5t-101 41l43 43q10 -10 23.5 -17t36.5 -7v448q-29 -23 -62.5 -36t-70.5 -13q-53 0 -98.5 35t-45.5 92zM115 127q-1 -29 26 -49q-2 6 -2 18v305h-24v-274zM139 555 q0 23 15.5 38t38.5 15t39 -15t16 -38t-16.5 -38t-38.5 -15q-23 0 -38.5 15t-15.5 38zM295 555q0 23 15.5 38t37.5 15q23 0 39 -15t16 -38t-16 -38t-39 -15t-38 15t-15 38zM391 -373q23 23 23 58v716h-23v-774z" />
<glyph unicode="&#x152;" horiz-adv-x="1632" d="M55 598q0 117 41 227.5t114 195.5t175 137t225 52q92 0 176 -30.5t154 -89.5q47 49 113.5 75.5t134.5 26.5q51 0 99 -18.5t85 -51t59.5 -74.5t22.5 -87q0 -27 -14.5 -45.5t-42.5 -18.5q-41 0 -67.5 34t-26.5 73q0 25 14 41t41 18q-29 37 -74 53.5t-92 16.5 q-43 0 -75 -16.5t-54.5 -44.5t-33.5 -64.5t-11 -75.5q0 -45 15.5 -87t45.5 -75q27 -29 68 -47t80 -18h139v-60h-80q-74 0 -133 -15.5t-113 -70.5q-43 -43 -63.5 -102.5t-20.5 -120.5q0 -53 15.5 -103.5t46.5 -89.5t76 -61.5t104 -22.5q115 0 204 58.5t118 173.5l57 -15 q-16 -66 -53 -118t-87.5 -86.5t-112.5 -53t-128 -18.5q-72 0 -142.5 23.5t-127.5 70.5q-70 -53 -150 -80.5t-166 -27.5q-123 0 -225 52t-175 138t-114 195.5t-41 226.5zM115 598q0 -104 34.5 -204.5t104.5 -180.5q-53 86 -77.5 185.5t-24.5 199.5t24.5 199.5t77.5 185.5 q-70 -78 -104.5 -179.5t-34.5 -205.5zM211 598q0 -86 24.5 -182.5t73.5 -179t124 -137t175 -54.5q74 0 138.5 34t111.5 87q-59 82 -59 182q0 115 68.5 203t172.5 127q-72 33 -121 95.5t-49 144.5q0 45 15 81q-49 66 -120 110t-155 44q-88 0 -158.5 -46t-119.5 -114 q-61 -86 -91 -188.5t-30 -206.5zM858 350q0 -106 78 -184q-39 84 -39 174q0 66 20.5 127.5t61.5 112.5q-55 -41 -88 -100.5t-33 -129.5zM930 920q0 -45 20.5 -84t55.5 -68q-23 35 -34 75t-11 81q0 39 10 84l-19 -2q-23 -41 -22 -86z" />
<glyph unicode="&#x153;" horiz-adv-x="778" d="M55 231q0 43 14.5 84t42 74t64.5 52.5t84 19.5q35 0 68.5 -14.5t60.5 -36.5q63 51 148 51q59 0 107 -29t48 -96q0 -43 -22.5 -71.5t-55 -49t-70.5 -35t-71 -24.5q6 -29 28.5 -62t57.5 -33t65.5 20.5t53.5 47.5l45 -37q-35 -43 -85 -67.5t-106 -24.5q-82 0 -145 51 q-55 -51 -127 -51q-47 0 -84 20.5t-64.5 52t-42 73.5t-14.5 85zM115 231q0 -45 19.5 -86.5t60.5 -64.5q-23 33 -30 70.5t-7 74.5q0 41 8 82t29 76q-41 -23 -60.5 -65t-19.5 -87zM217 231q0 -23 3 -49t12.5 -49.5t26.5 -40t46 -16.5q23 0 39 16q-49 61 -49 135q0 39 14 75 t37 67q-23 18 -45 18q-27 0 -43 -17.5t-25.5 -42t-12.5 -51t-3 -45.5zM358 231q0 -47 19.5 -87.5t60.5 -63.5q-23 33 -30 70.5t-7 74.5q0 41 8.5 82t28.5 76q-41 -25 -60.5 -66t-19.5 -86zM463 215q20 6 50 15.5t56.5 23.5t45 34.5t18.5 49.5q0 33 -21.5 47t-50.5 14 q-25 0 -43 -19.5t-30.5 -47t-18.5 -60t-6 -57.5z" />
<glyph unicode="&#x178;" horiz-adv-x="1165" d="M55 -158q0 55 30 88t85 33q45 0 80 -29.5t35 -76.5q0 -25 -16.5 -43.5t-41.5 -18.5q-33 0 -62.5 31t-37.5 59q-12 -16 -12 -39q0 -31 16 -53t41 -35.5t53.5 -19.5t53.5 -6q47 0 93 21.5t89 54t81 70.5t68 69l-397 1186h-158v59h443v-59h-121l348 -1043q57 80 115.5 181.5 t105.5 212t78 223t31 213.5q0 57 -12.5 106t-39 85t-70.5 56.5t-106 20.5q-37 0 -69.5 -16.5t-57 -42t-38 -60.5t-13.5 -72q0 -59 37 -102l-45 -39q-51 61 -51 139q0 49 18.5 94.5t51 81t76.5 56t93 20.5q76 0 129.5 -24.5t87 -68.5t49 -104.5t15.5 -129.5q0 -63 -10 -126 t-27 -122q-35 -117 -87 -238t-120.5 -235.5t-149.5 -218t-173 -183.5q-53 -47 -120.5 -86t-139.5 -39q-39 0 -79 10.5t-73 31t-54.5 53t-21.5 75.5zM274 1133l381 -1133l27 33l-367 1100h-41zM469 1286q0 23 15.5 38t38.5 15t39 -15t16 -38t-16.5 -38t-38.5 -15 q-23 0 -38.5 15t-15.5 38zM625 1286q0 23 15.5 38t37.5 15q23 0 39 -15t16 -38t-16 -38t-39 -15t-38 15t-15 38z" />
<glyph unicode="&#x2c6;" horiz-adv-x="489" d="M55 492l191 163l188 -163h-88l-100 86l-101 -86h-90z" />
<glyph unicode="&#x2dc;" horiz-adv-x="518" d="M55 528q14 35 36 61.5t65 26.5q29 0 55.5 -11t52 -24.5t49 -24.5t45.5 -11q25 0 33 16.5t17 34.5l55 -21q-14 -37 -34.5 -63.5t-66.5 -26.5q-29 0 -57.5 11.5t-54 25t-50 24.5t-44.5 11q-23 0 -31 -16.5t-14 -34.5z" />
<glyph unicode="&#x2000;" horiz-adv-x="819" />
<glyph unicode="&#x2001;" horiz-adv-x="1638" />
<glyph unicode="&#x2002;" horiz-adv-x="819" />
<glyph unicode="&#x2003;" horiz-adv-x="1638" />
<glyph unicode="&#x2004;" horiz-adv-x="546" />
<glyph unicode="&#x2005;" horiz-adv-x="409" />
<glyph unicode="&#x2006;" horiz-adv-x="273" />
<glyph unicode="&#x2007;" horiz-adv-x="273" />
<glyph unicode="&#x2008;" horiz-adv-x="204" />
<glyph unicode="&#x2009;" horiz-adv-x="327" />
<glyph unicode="&#x200a;" horiz-adv-x="91" />
<glyph unicode="&#x2010;" horiz-adv-x="389" d="M55 424v176h279v-176h-279zM115 483h159v58h-159v-58z" />
<glyph unicode="&#x2011;" horiz-adv-x="389" d="M55 424v176h279v-176h-279zM115 483h159v58h-159v-58z" />
<glyph unicode="&#x2012;" horiz-adv-x="389" d="M55 424v176h279v-176h-279zM115 483h159v58h-159v-58z" />
<glyph unicode="&#x2013;" horiz-adv-x="716" d="M55 424v176h607v-176h-607zM115 483h487v58h-487v-58z" />
<glyph unicode="&#x2014;" horiz-adv-x="1105" d="M55 424v176h996v-176h-996zM115 483h876v58h-876v-58z" />
<glyph unicode="&#x2018;" horiz-adv-x="292" d="M55 991q0 31 19 56l116 163l48 -34l-66 -97q29 -6 46.5 -32.5t17.5 -55.5q0 -37 -27 -63.5t-64 -26.5t-63.5 26.5t-26.5 63.5zM113 993q0 -14 10 -23t22 -9q14 0 23.5 9t9.5 21q0 33 -33 33q-12 0 -22 -9.5t-10 -21.5z" />
<glyph unicode="&#x2019;" horiz-adv-x="292" d="M55 936l66 96q-29 6 -46.5 33t-17.5 55q0 37 27 63.5t63 26.5q37 0 64 -26.5t27 -63.5q0 -31 -19 -55l-117 -164zM115 1120q0 -33 32 -33q12 0 22.5 9.5t10.5 21.5q0 14 -10 23.5t-23 9.5q-14 0 -23 -9t-9 -22z" />
<glyph unicode="&#x201a;" horiz-adv-x="292" d="M55 -100l66 96q-29 6 -46.5 32.5t-17.5 55.5q0 37 27 63.5t63 26.5q37 0 64 -26.5t27 -63.5q0 -31 -19 -55l-117 -164zM115 84q0 -33 32 -33q12 0 22.5 9.5t10.5 21.5q0 14 -10 23.5t-23 9.5q-14 0 -23 -9.5t-9 -21.5z" />
<glyph unicode="&#x201c;" horiz-adv-x="495" d="M55 991q0 31 19 56l116 163l48 -34l-66 -97q29 -6 46.5 -32.5t17.5 -55.5q0 -37 -27 -63.5t-64 -26.5t-63.5 26.5t-26.5 63.5zM113 993q0 -14 10 -23t22 -9q14 0 23.5 9t9.5 21q0 33 -33 33q-12 0 -22 -9.5t-10 -21.5zM258 991q0 31 18 56l117 163l47 -34l-65 -97 q29 -6 46 -32.5t17 -55.5q0 -37 -26.5 -63.5t-63.5 -26.5t-63.5 26.5t-26.5 63.5zM315 993q0 -14 10.5 -23t22.5 -9q14 0 23.5 9t9.5 21q0 33 -33 33q-12 0 -22.5 -9.5t-10.5 -21.5z" />
<glyph unicode="&#x201d;" horiz-adv-x="495" d="M55 936l66 96q-29 6 -46.5 33t-17.5 55q0 37 27 63.5t63 26.5q37 0 64 -26.5t27 -63.5q0 -31 -19 -55l-117 -164zM115 1120q0 -33 32 -33q12 0 22.5 9.5t10.5 21.5q0 14 -10 23.5t-23 9.5q-14 0 -23 -9t-9 -22zM258 936l66 96q-29 6 -46.5 33t-17.5 55q0 37 26.5 63.5 t63.5 26.5t63.5 -26.5t26.5 -63.5q0 -31 -18 -55l-117 -164zM317 1120q0 -33 33 -33q12 0 22.5 9.5t10.5 21.5q0 14 -10.5 23.5t-22.5 9.5q-14 0 -23.5 -9t-9.5 -22z" />
<glyph unicode="&#x201e;" horiz-adv-x="493" d="M55 -100l66 96q-29 6 -46.5 32.5t-17.5 55.5q0 37 27 63.5t63 26.5q37 0 64 -26.5t27 -63.5q0 -31 -19 -55l-117 -164zM115 84q0 -33 32 -33q12 0 22.5 9.5t10.5 21.5q0 14 -10 23.5t-23 9.5q-14 0 -23 -9.5t-9 -21.5zM256 -100l66 96q-29 6 -46.5 32.5t-17.5 55.5 q0 37 26.5 63.5t63.5 26.5t63.5 -26.5t26.5 -63.5q0 -31 -18 -55l-117 -164zM315 84q0 -33 33 -33q12 0 22.5 9.5t10.5 21.5q0 14 -10.5 23.5t-22.5 9.5q-14 0 -23.5 -9.5t-9.5 -21.5z" />
<glyph unicode="&#x2022;" horiz-adv-x="487" d="M55 623q0 39 14.5 73.5t40 60t60.5 40t74 14.5t73.5 -14.5t60 -40t40 -60t14.5 -73.5t-14.5 -73t-40 -59.5t-60 -40t-73.5 -14.5t-74 14.5t-60.5 40t-40 59.5t-14.5 73z" />
<glyph unicode="&#x2026;" horiz-adv-x="948" d="M55 74q0 39 27 65.5t65 26.5q39 0 65 -27.5t26 -64.5t-27 -63.5t-64 -26.5t-64.5 25.5t-27.5 64.5zM115 74q0 -14 10 -22.5t22 -8.5t21.5 9.5t9.5 21.5t-8 22t-23 10q-33 0 -32 -32zM383 74q0 39 26.5 65.5t65.5 26.5t64.5 -27.5t25.5 -64.5t-26.5 -63.5t-63.5 -26.5 t-64.5 25.5t-27.5 64.5zM442 74q0 -14 10.5 -22.5t22.5 -8.5t21.5 9.5t9.5 21.5t-8.5 22t-22.5 10q-33 0 -33 -32zM711 74q0 39 26.5 65.5t65.5 26.5t64.5 -27.5t25.5 -64.5t-26.5 -63.5t-63.5 -26.5t-64.5 25.5t-27.5 64.5zM770 74q0 -14 10.5 -22.5t22.5 -8.5t21.5 9.5 t9.5 21.5t-8.5 22t-22.5 10q-33 0 -33 -32z" />
<glyph unicode="&#x202f;" horiz-adv-x="327" />
<glyph unicode="&#x2039;" horiz-adv-x="358" d="M55 528l248 250v-237l-10 -13l10 -10v-237zM139 528l107 -106v72l-37 34l37 37v70z" />
<glyph unicode="&#x203a;" horiz-adv-x="358" d="M55 281v237l11 10l-11 13v237l248 -250zM113 422l106 106l-106 107v-70l37 -37l-37 -34v-72z" />
<glyph unicode="&#x205f;" horiz-adv-x="409" />
<glyph unicode="&#x20ac;" horiz-adv-x="1054" d="M55 426l25 59h72v41h-93l25 60h74q14 92 60 170t113.5 135t152.5 89t178 32q94 0 181 -33t156 -94l-24 -58q-63 59 -145 92t-168 33q-76 0 -136.5 -31.5t-106.5 -83t-75 -118t-39 -133.5h567l-24 -60h-547q-2 -6 -2 -20t2 -21h530l-26 -59h-500q10 -68 39 -134.5 t75 -117.5t106.5 -83t136.5 -32q135 0 247 72l31 -49q-127 -82 -278 -82q-94 0 -178.5 31.5t-152 88t-113.5 135.5t-60 171h-103zM211 506q0 -78 26.5 -151t75.5 -132q-37 66 -54 137.5t-17 145.5t17 145.5t54 136.5q-49 -59 -75.5 -131.5t-26.5 -150.5z" />
<glyph unicode="&#x2122;" horiz-adv-x="622" d="M55 1145v49h203v-49h-76v-285h-47v285h-80zM279 860v334h75l70 -135l70 135h73v-334h-49v281l-80 -166h-30l-80 166v-281h-49z" />
<glyph unicode="&#x25fc;" horiz-adv-x="460" d="M0 0v461h461v-461h-461z" />
</font>
</defs>
</svg>
